<?xml version="1.0" encoding="utf-8"?><svg viewBox="0 0 50 50" xmlns="http://www.w3.org/2000/svg" xmlns:xlink="http://www.w3.org/1999/xlink"><style>:root>svg{display:none}:root>svg:target{display:block}</style><svg viewBox="0 0 50 50" id="arr" xmlns="http://www.w3.org/2000/svg"><path d="M50 25c0 13.807-11.193 25-25 25S0 38.807 0 25 11.193 0 25 0s25 11.193 25 25z"/><path fill-rule="evenodd" clip-rule="evenodd" d="M13 22.785c0 2.732.117 2.868 6 7L25 34l6-4.215c5.883-4.132 6-4.268 6-7V20l-12 8.429L13 20v2.785z" fill="#fff"/></svg><svg viewBox="0 0 50 50" id="arr_next" xmlns="http://www.w3.org/2000/svg"><path d="M25 0c13.807 0 25 11.193 25 25S38.807 50 25 50 0 38.807 0 25 11.193 0 25 0z"/><path fill-rule="evenodd" clip-rule="evenodd" d="M22.785 37c2.732 0 2.868-.116 7-6L34 25l-4.215-6c-4.132-5.883-4.268-6-7-6H20l8.429 12L20 37h2.785z" fill="#fff"/></svg><svg viewBox="0 0 50 50" id="arr_prev" xmlns="http://www.w3.org/2000/svg"><path d="M25 50C11.193 50 0 38.807 0 25S11.193 0 25 0s25 11.193 25 25-11.193 25-25 25z"/><path fill-rule="evenodd" clip-rule="evenodd" d="M27.215 13c-2.732 0-2.868.117-7 6L16 25l4.215 6c4.132 5.884 4.268 6 7 6H30l-8.429-12L30 13h-2.785z" fill="#fff"/></svg><svg viewBox="0 0 50 50" id="arr_up" xmlns="http://www.w3.org/2000/svg"><path d="M0 25C0 11.193 11.193 0 25 0s25 11.193 25 25-11.193 25-25 25S0 38.807 0 25z"/><path fill-rule="evenodd" clip-rule="evenodd" d="M37 27.215c0-2.732-.117-2.868-6-7L25 16l-6 4.215c-5.883 4.132-6 4.268-6 7V30l12-8.429L37 30v-2.785z" fill="#fff"/></svg><svg viewBox="0 0 20 20" id="close" xmlns="http://www.w3.org/2000/svg"><path d="M17 10a7 7 0 11-14 0 7 7 0 0114 0z" fill="#fff"/><path d="M11.414 10l2.829-2.828a1 1 0 00-1.415-1.415L10 8.586 7.172 5.757a1 1 0 10-1.415 1.415L8.586 10l-2.829 2.828a1 1 0 101.415 1.415L10 11.414l2.828 2.829a1 1 0 101.415-1.415L11.414 10zM10 20C4.477 20 0 15.523 0 10S4.477 0 10 0s10 4.477 10 10-4.477 10-10 10z"/></svg><svg fill="none" viewBox="0 0 30 30" id="gmail" xmlns="http://www.w3.org/2000/svg"><path d="M15 30c8.284 0 15-6.716 15-15 0-8.284-6.716-15-15-15C6.716 0 0 6.716 0 15c0 8.284 6.716 15 15 15z" fill="#C49E55"/><path d="M20.383 9.397l-1.024.795-4.358 3.221-4.358-3.253-1.024-.795a1.604 1.604 0 00-2.413.444 1.583 1.583 0 00-.202.892v9.217c0 .287.114.562.318.765.204.203.481.317.77.317h2.55v-6.14l4.359 3.253 4.358-3.253V21h2.551c.289 0 .566-.114.77-.317.204-.203.318-.478.318-.765v-9.217a1.584 1.584 0 00-.88-1.499 1.607 1.607 0 00-1.735.195z" fill="#fff"/></svg><svg fill="none" viewBox="0 0 30 30" id="gmail_w" xmlns="http://www.w3.org/2000/svg"><path d="M15 30c8.284 0 15-6.716 15-15 0-8.284-6.716-15-15-15C6.716 0 0 6.716 0 15c0 8.284 6.716 15 15 15z" fill="#fff"/><path d="M20.383 9.397l-1.024.795-4.358 3.221-4.358-3.253-1.024-.795a1.604 1.604 0 00-2.413.444 1.583 1.583 0 00-.202.892v9.217c0 .287.114.562.318.765.204.203.481.317.77.317h2.55v-6.14l4.359 3.253 4.358-3.253V21h2.551c.289 0 .566-.114.77-.317.204-.203.318-.478.318-.765v-9.217a1.584 1.584 0 00-.88-1.499 1.607 1.607 0 00-1.735.195z" fill="#C49E55"/></svg><svg fill="none" viewBox="0 0 40 40" id="mail" xmlns="http://www.w3.org/2000/svg"><path d="M40 20c0 11.046-8.954 20-20 20S0 31.046 0 20 8.954 0 20 0s20 8.954 20 20z" fill="#0075FF"/><path d="M19.55 12.396c1.985 0 3.855.917 5.226 2.35v.005c0-.689.445-1.21 1.059-1.21h.156c.97 0 1.163.953 1.163 1.254l.004 10.7c-.067.701.695 1.064 1.118.613 1.646-1.764 3.617-9.077-1.024-13.312-4.33-3.952-10.14-3.299-13.228-1.08-3.283 2.364-5.382 7.587-3.343 12.495 2.226 5.352 8.59 6.948 12.378 5.356 1.917-.807 2.801 1.891.808 2.774-3.004 1.336-11.375 1.2-15.284-5.858C5.94 21.716 6.08 13.332 13.09 8.986c5.356-3.325 12.424-2.404 16.684 2.233 4.453 4.851 4.195 13.929-.151 17.458-1.969 1.605-4.892.044-4.871-2.294l-.022-.762c-1.37 1.415-3.195 2.245-5.18 2.245-3.926 0-7.383-3.605-7.383-7.693 0-4.133 3.457-7.775 7.383-7.775v-.002zm4.94 7.481c-.15-2.995-2.282-4.8-4.86-4.8h-.097c-2.97 0-4.62 2.44-4.62 5.205 0 3.1 1.993 5.058 4.608 5.058 2.92 0 4.836-2.226 4.976-4.86l-.008-.603z" fill="#FFA800"/></svg><svg fill="none" viewBox="0 0 30 30" id="tg" xmlns="http://www.w3.org/2000/svg"><path d="M15 30c8.284 0 15-6.716 15-15 0-8.284-6.716-15-15-15C6.716 0 0 6.716 0 15c0 8.284 6.716 15 15 15z" fill="#C49E55"/><path fill-rule="evenodd" clip-rule="evenodd" d="M6.79 14.842l8.747-3.768C19.703 9.34 20.57 9.04 21.133 9.03c.124-.002.402.029.581.175.152.123.194.289.214.406.02.116.045.382.025.59-.226 2.372-1.203 8.128-1.7 10.784-.21 1.125-.624 1.501-1.025 1.538-.87.08-1.532-.575-2.376-1.128l-3.348-2.249c-1.48-.976-.52-1.512.324-2.389.22-.23 4.058-3.72 4.133-4.037.009-.04.018-.187-.07-.265-.088-.078-.217-.051-.31-.03-.133.03-2.242 1.424-6.328 4.182-.598.41-1.14.611-1.626.6-.536-.01-1.566-.302-2.332-.551-.94-.305-1.686-.467-1.621-.986.034-.27.406-.546 1.116-.828z" fill="#fff"/></svg><svg fill="none" viewBox="0 0 30 30" id="tg_w" xmlns="http://www.w3.org/2000/svg"><path d="M15 30c8.284 0 15-6.716 15-15 0-8.284-6.716-15-15-15C6.716 0 0 6.716 0 15c0 8.284 6.716 15 15 15z" fill="#fff"/><path fill-rule="evenodd" clip-rule="evenodd" d="M6.79 14.842l8.747-3.768C19.703 9.34 20.57 9.04 21.133 9.03c.124-.002.402.029.581.175.152.123.194.289.214.406.02.116.045.382.025.59-.226 2.372-1.203 8.128-1.7 10.784-.21 1.125-.624 1.501-1.025 1.538-.87.08-1.532-.575-2.376-1.128l-3.348-2.249c-1.48-.976-.52-1.512.324-2.389.22-.23 4.058-3.72 4.133-4.037.009-.04.018-.187-.07-.265-.088-.078-.217-.051-.31-.03-.133.03-2.242 1.424-6.328 4.182-.598.41-1.14.611-1.626.6-.536-.01-1.566-.302-2.332-.551-.94-.305-1.686-.467-1.621-.986.034-.27.406-.546 1.116-.828z" fill="#C49E55"/></svg><svg fill="none" viewBox="0 0 40 40" id="twit" xmlns="http://www.w3.org/2000/svg"><path d="M36 20c0 8.837-7.163 16-16 16S4 28.837 4 20 11.163 4 20 4s16 7.163 16 16z" fill="#fff"/><path d="M20 0C8.955 0 0 8.955 0 20s8.955 20 20 20 20-8.955 20-20S31.045 0 20 0zm9.612 15.076c.013.21.013.428.013.643 0 6.553-4.991 14.102-14.112 14.102-2.812 0-5.42-.817-7.616-2.223.402.045.786.063 1.197.063a9.947 9.947 0 006.156-2.116 4.96 4.96 0 01-4.634-3.438c.764.112 1.451.112 2.237-.09a4.956 4.956 0 01-3.97-4.865v-.063c.657.37 1.43.599 2.238.63a4.963 4.963 0 01-2.21-4.125c0-.924.24-1.768.674-2.5a14.076 14.076 0 0010.223 5.183c-.7-3.37 1.817-6.098 4.844-6.098 1.428 0 2.714.598 3.62 1.562a9.793 9.793 0 003.148-1.192 4.935 4.935 0 01-2.179 2.728c1-.107 1.964-.384 2.857-.772a10.392 10.392 0 01-2.486 2.57z" fill="#1D9BF0"/></svg><svg fill="none" viewBox="0 0 40 40" id="vk" xmlns="http://www.w3.org/2000/svg"><path d="M35 20c0 8.284-6.716 15-15 15-8.284 0-15-6.716-15-15 0-8.284 6.716-15 15-15 8.284 0 15 6.716 15 15z" fill="#fff"/><path d="M20 0C8.954 0 0 8.954 0 20s8.954 20 20 20 20-8.954 20-20S31.046 0 20 0zm7.692 22.565s1.768 1.745 2.204 2.556c.012.017.019.033.023.042.177.297.218.529.131.702-.146.287-.646.429-.817.441h-3.125c-.216 0-.67-.056-1.22-.435-.423-.296-.84-.781-1.246-1.254-.607-.704-1.132-1.313-1.66-1.313a.636.636 0 00-.199.031c-.4.13-.912.7-.912 2.221 0 .475-.375.748-.64.748H18.8c-.488 0-3.027-.17-5.277-2.544-2.754-2.906-5.233-8.735-5.254-8.79-.156-.376.166-.578.518-.578h3.157c.42 0 .558.256.654.483.112.265.525 1.317 1.202 2.5 1.098 1.93 1.77 2.712 2.31 2.712a.625.625 0 00.29-.075c.704-.391.573-2.902.542-3.422 0-.098-.002-1.123-.363-1.615-.258-.356-.698-.492-.964-.542.107-.149.25-.27.414-.352.483-.241 1.354-.277 2.219-.277h.481c.938.013 1.18.073 1.519.159.687.164.702.608.642 2.127a33.05 33.05 0 00-.038 1.493c0 .125-.006.259-.006.4-.021.773-.046 1.65.5 2.01a.45.45 0 00.237.07c.19 0 .76 0 2.307-2.653.476-.853.89-1.74 1.24-2.654.03-.054.122-.22.23-.285a.555.555 0 01.259-.06h3.71c.404 0 .681.06.733.216.092.248-.016 1.004-1.71 3.298l-.756.998c-1.536 2.012-1.536 2.115.096 3.642z" fill="#0085FF"/></svg><svg fill="none" viewBox="0 0 30 30" id="whats" xmlns="http://www.w3.org/2000/svg"><path d="M15 30c8.284 0 15-6.716 15-15 0-8.284-6.716-15-15-15C6.716 0 0 6.716 0 15c0 8.284 6.716 15 15 15z" fill="#C49E55"/><path d="M19.548 16.356c-.193-.097-1.21-.678-1.403-.726-.194-.097-.339-.097-.484.097-.145.193-.58.677-.677.774-.145.145-.242.145-.436.048-.193-.097-.87-.339-1.645-1.113-.58-.58-1.016-1.258-1.113-1.5-.096-.193 0-.338.097-.435.097-.097.194-.242.339-.339.145-.097.145-.194.242-.339.096-.145.048-.242 0-.387-.049-.145-.436-1.161-.581-1.597-.145-.435-.339-.338-.436-.387-.145 0-.241-.048-.387-.048a.893.893 0 00-.58.242c-.194.193-.774.677-.774 1.693 0 1.017.677 2.081.774 2.178.097.145 1.355 2.37 3.435 3.29 2.08.92 2.08.63 2.468.63.387 0 1.258-.485 1.452-.92.193-.484.193-.92.145-.968-.097 0-.242-.048-.436-.193zm-3.87 4.983a6.734 6.734 0 01-3.727-1.112l-2.612.822.87-2.516c-.822-1.161-1.306-2.565-1.306-4.016a6.815 6.815 0 016.823-6.823c3.774 0 6.774 3.049 6.774 6.823a6.815 6.815 0 01-6.823 6.823zm0-15c-4.5 0-8.178 3.678-8.178 8.178 0 1.5.387 2.951 1.161 4.21l-1.5 4.403 4.549-1.452a8.072 8.072 0 003.967 1.016c4.5 0 8.178-3.677 8.178-8.177s-3.63-8.178-8.178-8.178z" fill="#fff"/></svg><svg fill="none" viewBox="0 0 30 30" id="whats_w" xmlns="http://www.w3.org/2000/svg"><path d="M15 30c8.284 0 15-6.716 15-15 0-8.284-6.716-15-15-15C6.716 0 0 6.716 0 15c0 8.284 6.716 15 15 15z" fill="#fff"/><path d="M19.548 16.356c-.193-.097-1.21-.678-1.403-.726-.194-.097-.339-.097-.484.097-.145.193-.58.677-.677.774-.145.145-.242.145-.436.048-.193-.097-.87-.339-1.645-1.113-.58-.58-1.016-1.258-1.113-1.5-.096-.193 0-.338.097-.435.097-.097.194-.242.339-.339.145-.097.145-.194.242-.339.096-.145.048-.242 0-.387-.049-.145-.436-1.161-.581-1.597-.145-.435-.339-.338-.436-.387-.145 0-.241-.048-.387-.048a.893.893 0 00-.58.242c-.194.193-.774.677-.774 1.693 0 1.017.677 2.081.774 2.178.097.145 1.355 2.37 3.435 3.29 2.08.92 2.08.63 2.468.63.387 0 1.258-.485 1.452-.92.193-.484.193-.92.145-.968-.097 0-.242-.048-.436-.193zm-3.87 4.983a6.734 6.734 0 01-3.727-1.112l-2.612.822.87-2.516c-.822-1.161-1.306-2.565-1.306-4.016a6.815 6.815 0 016.823-6.823c3.774 0 6.774 3.049 6.774 6.823a6.815 6.815 0 01-6.823 6.823zm0-15c-4.5 0-8.178 3.678-8.178 8.178 0 1.5.387 2.951 1.161 4.21l-1.5 4.403 4.549-1.452a8.072 8.072 0 003.967 1.016c4.5 0 8.178-3.677 8.178-8.177s-3.63-8.178-8.178-8.178z" fill="#C49E55"/></svg><svg fill="none" viewBox="0 0 40 40" id="yt" xmlns="http://www.w3.org/2000/svg"><path d="M35 20c0 8.284-6.716 15-15 15-8.284 0-15-6.716-15-15 0-8.284 6.716-15 15-15 8.284 0 15 6.716 15 15z" fill="#fff"/><path d="M23.34 19.652l-4.68-2.183c-.408-.19-.743.023-.743.475v4.112c0 .452.335.665.743.475l4.677-2.183c.41-.192.41-.504.003-.696zM20 0C8.954 0 0 8.954 0 20s8.954 20 20 20 20-8.954 20-20S31.046 0 20 0zm0 28.125c-10.238 0-10.417-.923-10.417-8.125s.18-8.125 10.417-8.125c10.238 0 10.417.923 10.417 8.125s-.18 8.125-10.417 8.125z" fill="#FF3A00"/></svg></svg>