<svg width="1044" height="411" fill="none" xmlns="http://www.w3.org/2000/svg"><path d="M23.368 383.08c.347 0 .614.16.8.48.213.32.32.76.32 1.32 0 1.067-.253 1.893-.76 2.48-1.227 1.413-2.493 2.573-3.8 3.48-1.28.907-2.747 1.36-4.4 1.36-1.386 0-2.36-.427-2.92-1.28s-.84-2.133-.84-3.84c0-.72.067-1.587.2-2.6-2.347 0-3.973-.027-4.88-.08-.053.747-.08 1.267-.08 1.56v.84c-.027 1.653-.067 2.813-.12 3.48-.053.667-.213 1.16-.48 1.48-.267.293-.707.44-1.32.44-1.013 0-1.733-.533-2.16-1.6-.4-1.067-.6-2.773-.6-5.12 0-3.467.493-6.76 1.48-9.88.24-.773.627-1.333 1.16-1.68.533-.373 1.307-.56 2.32-.56.533 0 .907.067 1.12.2.213.133.32.387.32.76 0 .427-.2 1.387-.6 2.88-.213.88-.413 1.947-.6 3.2h5.12c.267-1.253.654-2.853 1.16-4.8.213-.8.534-1.373.96-1.72.454-.347 1.12-.52 2-.52.613 0 1.04.08 1.28.24.24.133.36.4.36.8 0 .667-.333 2.493-1 5.48-.747 3.413-1.12 5.52-1.12 6.32 0 .507.107.907.32 1.2.213.267.494.4.84.4.534 0 1.16-.32 1.88-.96.747-.667 1.733-1.733 2.96-3.2.32-.373.68-.56 1.08-.56zm2.785 9.12c-1.654 0-2.974-.6-3.96-1.8-.987-1.2-1.48-2.773-1.48-4.72 0-2.133.493-4.147 1.48-6.04.986-1.92 2.293-3.453 3.92-4.6 1.653-1.173 3.4-1.76 5.24-1.76.586 0 .973.12 1.16.36.213.213.386.613.52 1.2a9.364 9.364 0 011.76-.16c1.306 0 1.96.467 1.96 1.4 0 .56-.2 1.893-.6 4-.614 3.067-.92 5.2-.92 6.4 0 .4.093.72.28.96.213.24.48.36.8.36.506 0 1.12-.32 1.84-.96.72-.667 1.693-1.733 2.92-3.2.32-.373.68-.56 1.08-.56.346 0 .613.16.8.48.213.32.32.76.32 1.32 0 1.067-.254 1.893-.76 2.48-1.094 1.36-2.254 2.507-3.48 3.44-1.227.933-2.414 1.4-3.56 1.4-.88 0-1.694-.293-2.44-.88-.72-.613-1.267-1.44-1.64-2.48-1.387 2.24-3.134 3.36-5.24 3.36zm1.44-4.04c.586 0 1.146-.347 1.68-1.04.533-.693.92-1.613 1.16-2.76l1.48-7.36c-1.12.027-2.16.453-3.12 1.28-.934.8-1.68 1.867-2.24 3.2a10.838 10.838 0 00-.84 4.24c0 .827.16 1.44.48 1.84.346.4.813.6 1.4.6zm32.909-5c.346 0 .613.173.8.52.213.32.32.733.32 1.24 0 .613-.094 1.093-.28 1.44-.187.347-.48.653-.88.92a389.417 389.417 0 00-5.04 3.44l-2.56 1.72c-1.014 5.52-2.347 9.853-4 13-1.627 3.173-3.707 4.76-6.24 4.76-1.36 0-2.467-.427-3.32-1.28-.854-.827-1.28-1.92-1.28-3.28 0-1.893.746-3.933 2.24-6.12 1.493-2.16 4.293-4.827 8.4-8l.24-1.56a4.738 4.738 0 01-1.8 1.68c-.72.373-1.44.56-2.16.56-1.654 0-2.974-.6-3.96-1.8-.987-1.2-1.48-2.773-1.48-4.72 0-2.133.493-4.147 1.48-6.04.986-1.92 2.293-3.453 3.92-4.6 1.653-1.173 3.4-1.76 5.24-1.76.586 0 .973.12 1.16.36.213.213.386.613.52 1.2a8.588 8.588 0 011.76-.16c.666 0 1.133.107 1.4.32.293.187.44.573.44 1.16 0 .32-.014.573-.04.76-.107.827-.44 2.92-1 6.28-.107.64-.227 1.347-.36 2.12-.107.747-.227 1.547-.36 2.4a84.041 84.041 0 015.92-4.24c.346-.213.653-.32.92-.32zm-14.12 5c.613 0 1.2-.373 1.76-1.12.56-.747.96-1.813 1.2-3.2l1.28-6.84c-1.094.027-2.107.453-3.04 1.28-.934.8-1.68 1.867-2.24 3.2a10.838 10.838 0 00-.84 4.24c0 .827.16 1.44.48 1.84.346.4.813.6 1.4.6zm-3.32 18.16c.666 0 1.413-.8 2.24-2.4.853-1.6 1.666-4.147 2.44-7.64-2.054 1.76-3.534 3.347-4.44 4.76-.907 1.413-1.36 2.653-1.36 3.72 0 .453.08.827.24 1.12.186.293.48.44.88.44zm33.94-23.24c.347 0 .614.16.8.48.213.32.32.76.32 1.32 0 1.067-.253 1.893-.76 2.48-.986 1.2-2.386 2.307-4.2 3.32a11.49 11.49 0 01-5.76 1.52c-2.8 0-4.973-.76-6.52-2.28-1.546-1.52-2.32-3.6-2.32-6.24 0-1.84.387-3.547 1.16-5.12.773-1.6 1.84-2.867 3.2-3.8 1.387-.933 2.947-1.4 4.68-1.4 1.547 0 2.787.467 3.72 1.4.933.907 1.4 2.147 1.4 3.72 0 1.84-.666 3.427-2 4.76-1.306 1.307-3.533 2.347-6.68 3.12.667 1.227 1.933 1.84 3.8 1.84 1.2 0 2.56-.413 4.08-1.24a13.717 13.717 0 004-3.32c.32-.373.68-.56 1.08-.56zm-10.08-5.8c-.986 0-1.826.573-2.52 1.72-.666 1.147-1 2.533-1 4.16v.08c1.573-.373 2.814-.933 3.72-1.68.907-.747 1.36-1.613 1.36-2.6 0-.507-.147-.907-.44-1.2-.267-.32-.64-.48-1.12-.48zm38.548 5.8c.347 0 .613.16.8.48.213.32.32.76.32 1.32 0 1.067-.253 1.893-.76 2.48-1.2 1.44-2.4 2.613-3.6 3.52-1.2.88-2.56 1.32-4.08 1.32-1.28 0-2.427-.32-3.44-.96a7.77 7.77 0 01-2.44-2.4c-.613-.987-1.013-1.973-1.2-2.96-.32 2.24-.747 3.893-1.28 4.96-.267.48-.547.827-.84 1.04-.267.213-.667.32-1.2.32-.64 0-1.093-.227-1.36-.68-.267-.453-.4-1.173-.4-2.16 0-.853.08-1.933.24-3.24.187-1.333.4-2.6.64-3.8h-.08c-.773 2.133-1.493 3.853-2.16 5.16a10.172 10.172 0 01-2.56 3.32c-1.04.907-2.333 1.36-3.88 1.36-1.467 0-2.627-.427-3.48-1.28-.853-.853-1.28-1.987-1.28-3.4 0-1.333.307-2.413.92-3.24.613-.827 1.48-1.24 2.6-1.24.96 0 1.44.36 1.44 1.08 0 .187-.027.52-.08 1-.08.96-.12 1.507-.12 1.64 0 .8.347 1.2 1.04 1.2.507 0 .987-.293 1.44-.88.48-.613.867-1.44 1.16-2.48.32-1.04.48-2.187.48-3.44 0-.96-.12-1.76-.36-2.4-.24-.667-.533-1-.88-1-.293 0-.507.08-.64.24-.133.133-.267.373-.4.72-.16.427-.373.773-.64 1.04-.267.24-.733.36-1.4.36-.587 0-1.053-.2-1.4-.6-.347-.427-.52-1.067-.52-1.92 0-1.333.427-2.387 1.28-3.16.88-.8 1.973-1.2 3.28-1.2 1.253 0 2.32.507 3.2 1.52.907.987 1.667 2.507 2.28 4.56.213-1.893.44-3.24.68-4.04.24-.72.587-1.213 1.04-1.48.453-.267 1.133-.4 2.04-.4.533 0 .907.08 1.12.24.213.16.32.427.32.8 0 .373-.2 1.307-.6 2.8-.4 1.68-.733 3.867-1 6.56h.08c.72-2.587 1.493-4.627 2.32-6.12.827-1.52 1.747-2.613 2.76-3.28 1.04-.667 2.24-1 3.6-1 1.387 0 2.467.44 3.24 1.32.8.853 1.2 1.96 1.2 3.32 0 1.12-.253 2.067-.76 2.84-.48.773-1.12 1.16-1.92 1.16-.507 0-.92-.12-1.24-.36-.293-.24-.44-.573-.44-1 0-.187.027-.4.08-.64.053-.24.093-.413.12-.52.133-.4.2-.773.2-1.12 0-.72-.347-1.08-1.04-1.08-.533 0-1.053.28-1.56.84-.507.533-.92 1.267-1.24 2.2-.293.907-.44 1.893-.44 2.96 0 1.44.333 2.6 1 3.48.667.853 1.627 1.28 2.88 1.28.987 0 1.867-.32 2.64-.96.773-.667 1.84-1.813 3.2-3.44.32-.373.68-.56 1.08-.56zm18.992 0c.347 0 .613.16.8.48.213.32.32.76.32 1.32 0 1.067-.253 1.893-.76 2.48-1.227 1.413-2.493 2.573-3.8 3.48-1.28.907-2.747 1.36-4.4 1.36-1.387 0-2.36-.427-2.92-1.28s-.84-2.133-.84-3.84c0-.72.067-1.587.2-2.6-2.347 0-3.973-.027-4.88-.08-.053.747-.08 1.267-.08 1.56v.84c-.027 1.653-.067 2.813-.12 3.48-.053.667-.213 1.16-.48 1.48-.267.293-.707.44-1.32.44-1.013 0-1.733-.533-2.16-1.6-.4-1.067-.6-2.773-.6-5.12 0-3.467.493-6.76 1.48-9.88.24-.773.627-1.333 1.16-1.68.533-.373 1.307-.56 2.32-.56.533 0 .907.067 1.12.2.213.133.32.387.32.76 0 .427-.2 1.387-.6 2.88-.213.88-.413 1.947-.6 3.2h5.12c.267-1.253.653-2.853 1.16-4.8.213-.8.533-1.373.96-1.72.453-.347 1.12-.52 2-.52.613 0 1.04.08 1.28.24.24.133.36.4.36.8 0 .667-.333 2.493-1 5.48-.747 3.413-1.12 5.52-1.12 6.32 0 .507.107.907.32 1.2.213.267.493.4.84.4.533 0 1.16-.32 1.88-.96.747-.667 1.733-1.733 2.96-3.2.32-.373.68-.56 1.08-.56zm28.064 0c.347 0 .614.16.8.48.214.32.32.76.32 1.32 0 1.067-.253 1.893-.76 2.48-2.64 3.227-5.106 4.84-7.4 4.84-1.733 0-3-.613-3.8-1.84-.773-1.227-1.16-2.853-1.16-4.88v-.6c-1.466 2.213-3.093 3.987-4.88 5.32-1.76 1.333-3.613 2-5.56 2-2.32 0-4.173-.693-5.56-2.08-1.36-1.387-2.04-3.173-2.04-5.36 0-1.6.12-3.12.36-4.56.24-1.44.614-2.973 1.12-4.6.24-.773.627-1.333 1.16-1.68.56-.373 1.36-.56 2.4-.56 1.2 0 1.8.32 1.8.96 0 .267-.2 1.227-.6 2.88l-.28 1.2-.56 2.4a8.745 8.745 0 012.56-1.76c1.014-.48 2.04-.72 3.08-.72 1.227 0 2.24.373 3.04 1.12.8.72 1.254 1.747 1.36 3.08 1.04-1.253 1.894-2.427 2.56-3.52a24.77 24.77 0 001.72-3.48c.24-.8.547-1.36.92-1.68.4-.32 1.04-.48 1.92-.48 1.36 0 2.04.453 2.04 1.36 0 .667-.253 2.213-.76 4.64-.64 2.933-.96 4.92-.96 5.96 0 .8.107 1.413.32 1.84.214.427.574.64 1.08.64.48 0 1.08-.333 1.8-1s1.68-1.72 2.88-3.16c.32-.373.68-.56 1.08-.56zm-18.72 1.56c0-1.413-.76-2.12-2.28-2.12-.906 0-1.706.253-2.4.76a6.25 6.25 0 00-1.6 1.76c.107.987.387 1.72.84 2.2.454.48 1.147.72 2.08.72 1.067 0 1.894-.293 2.48-.88.587-.587.88-1.4.88-2.44zm20.686 7.56c-1.2 0-2.186-.547-2.96-1.64-.746-1.12-1.12-2.507-1.12-4.16 0-2 .134-3.827.4-5.48.267-1.68.707-3.453 1.32-5.32.267-.8.64-1.373 1.12-1.72.48-.347 1.24-.52 2.28-.52.587 0 .987.093 1.2.28.24.187.36.467.36.84 0 .213-.146.933-.44 2.16-.266.987-.48 1.88-.64 2.68-.533 2.8-.8 4.667-.8 5.6 0 .56.067.96.2 1.2.134.213.347.32.64.32.4 0 .894-.4 1.48-1.2.614-.8 1.254-2.013 1.92-3.64.694-1.627 1.36-3.627 2-6 .214-.8.534-1.373.96-1.72.454-.347 1.12-.52 2-.52.614 0 1.04.08 1.28.24.24.133.36.4.36.8 0 .667-.333 2.493-1 5.48-.746 3.413-1.12 5.52-1.12 6.32 0 .507.107.907.32 1.2.214.267.494.4.84.4.534 0 1.16-.32 1.88-.96.747-.667 1.734-1.733 2.96-3.2.32-.373.68-.56 1.08-.56.347 0 .614.16.8.48.214.32.32.76.32 1.32 0 1.067-.253 1.893-.76 2.48-1.146 1.413-2.386 2.573-3.72 3.48-1.306.907-2.8 1.36-4.48 1.36-1.28 0-2.226-.493-2.84-1.48-.586-.987-.88-2.373-.88-4.16-.453 1.813-1.133 3.213-2.04 4.2-.906.96-1.88 1.44-2.92 1.44zm4.32-21.48c-1.226 0-2.306-.253-3.24-.76-.933-.507-1.653-1.173-2.16-2a4.976 4.976 0 01-.76-2.64c0-.667.214-1.2.64-1.6.427-.427.974-.64 1.64-.64.694 0 1.2.16 1.52.48.32.32.574.867.76 1.64.267 1.12 1 1.68 2.2 1.68 1.254 0 2.334-.347 3.24-1.04.907-.72 1.56-1.587 1.96-2.6.214-.533.454-.907.72-1.12.267-.24.614-.36 1.04-.36.4 0 .734.16 1 .48.294.293.44.667.44 1.12l-.08.48c-.266 1.093-.76 2.16-1.48 3.2s-1.706 1.92-2.96 2.64c-1.253.693-2.746 1.04-4.48 1.04zm23.503 21.48c-1.014 0-1.734-.533-2.16-1.6-.4-1.067-.6-2.773-.6-5.12 0-3.467.493-6.76 1.48-9.88.24-.773.626-1.333 1.16-1.68.56-.373 1.333-.56 2.32-.56.533 0 .906.067 1.12.2.213.133.32.387.32.76 0 .427-.2 1.387-.6 2.88-.267 1.067-.48 2-.64 2.8-.16.8-.294 1.787-.4 2.96.88-2.293 1.866-4.16 2.96-5.6 1.093-1.44 2.16-2.467 3.2-3.08 1.066-.613 2.04-.92 2.92-.92 1.733 0 2.6.867 2.6 2.6 0 1.04-.294 2.92-.88 5.64-.507 2.32-.76 3.853-.76 4.6 0 1.067.386 1.6 1.16 1.6.533 0 1.16-.32 1.88-.96.746-.667 1.733-1.733 2.96-3.2.32-.373.68-.56 1.08-.56.346 0 .613.16.8.48.213.32.32.76.32 1.32 0 1.067-.254 1.893-.76 2.48-1.147 1.413-2.387 2.573-3.72 3.48-1.307.907-2.8 1.36-4.48 1.36-1.36 0-2.387-.387-3.08-1.16-.694-.8-1.04-1.947-1.04-3.44 0-.747.186-2.08.56-4 .346-1.68.52-2.84.52-3.48 0-.427-.147-.64-.44-.64-.347 0-.84.453-1.48 1.36-.614.88-1.254 2.053-1.92 3.52a28.732 28.732 0 00-1.56 4.64c-.294 1.253-.64 2.107-1.04 2.56-.374.427-.974.64-1.8.64zm21.923 0c-1.653 0-2.973-.6-3.96-1.8-.986-1.2-1.48-2.773-1.48-4.72 0-2.133.494-4.147 1.48-6.04.987-1.92 2.294-3.453 3.92-4.6 1.654-1.173 3.4-1.76 5.24-1.76.587 0 .974.12 1.16.36.214.213.387.613.52 1.2a9.367 9.367 0 011.76-.16c1.307 0 1.96.467 1.96 1.4 0 .56-.2 1.893-.6 4-.613 3.067-.92 5.2-.92 6.4 0 .4.094.72.28.96.214.24.48.36.8.36.507 0 1.12-.32 1.84-.96.72-.667 1.694-1.733 2.92-3.2.32-.373.68-.56 1.08-.56.347 0 .614.16.8.48.214.32.32.76.32 1.32 0 1.067-.253 1.893-.76 2.48-1.093 1.36-2.253 2.507-3.48 3.44-1.226.933-2.413 1.4-3.56 1.4-.88 0-1.693-.293-2.44-.88-.72-.613-1.266-1.44-1.64-2.48-1.386 2.24-3.133 3.36-5.24 3.36zm1.44-4.04c.587 0 1.147-.347 1.68-1.04.534-.693.92-1.613 1.16-2.76l1.48-7.36c-1.12.027-2.16.453-3.12 1.28-.933.8-1.68 1.867-2.24 3.2a10.838 10.838 0 00-.84 4.24c0 .827.16 1.44.48 1.84.347.4.814.6 1.4.6zm33.79-5.08c.346 0 .613.16.8.48.213.32.32.76.32 1.32 0 1.067-.254 1.893-.76 2.48-1.147 1.413-2.387 2.573-3.72 3.48-1.307.907-2.8 1.36-4.48 1.36-1.414 0-2.56-.507-3.44-1.52-1.52.987-3.107 1.493-4.76 1.52-.347 5.147-1.134 9.44-2.36 12.88-1.227 3.467-3.027 5.2-5.401 5.2-1.44 0-2.506-.52-3.2-1.56-.693-1.04-1.04-2.48-1.04-4.32 0-2.613.6-5.667 1.8-9.16 1.2-3.467 3.054-7.293 5.561-11.48 0-3.893-.027-6.6-.08-8.12-.027-.773.28-1.387.92-1.84.64-.453 1.44-.68 2.4-.68.56 0 .96.12 1.2.36.266.213.413.653.44 1.32 0 .667.013 1.16.04 1.48.853-1.067 1.693-1.827 2.52-2.28a5.17 5.17 0 012.64-.72c1.493 0 2.706.6 3.64 1.8.96 1.2 1.44 2.773 1.44 4.72 0 1.413-.227 2.787-.68 4.12a13.476 13.476 0 01-1.88 3.64c.56.16 1.026.24 1.4.24.88 0 1.72-.32 2.52-.96.8-.64 1.826-1.707 3.08-3.2.32-.373.68-.56 1.08-.56zm-15.84 5.28c.96-.213 1.84-.733 2.64-1.56.826-.853 1.48-1.893 1.96-3.12.48-1.253.72-2.56.72-3.92 0-.8-.16-1.4-.48-1.8a1.52 1.52 0 00-1.28-.64c-.96 0-2.12 1.013-3.48 3.04a243.85 243.85 0 00-.04 5.16c0 1.227-.014 2.173-.04 2.84zm-7.641 18c.721 0 1.321-1.573 1.801-4.72.48-3.12.786-7.013.92-11.68-1.147 2.667-2.054 5.213-2.721 7.64-.666 2.427-1 4.467-1 6.12 0 .853.107 1.507.32 1.96.187.453.414.68.68.68zm24.218-14.16c-1.013 0-1.733-.533-2.16-1.6-.4-1.067-.6-2.773-.6-5.12 0-3.467.494-6.76 1.48-9.88.24-.773.627-1.333 1.16-1.68.56-.373 1.334-.56 2.32-.56.534 0 .907.067 1.12.2.214.133.32.387.32.76 0 .427-.2 1.387-.6 2.88-.266 1.067-.48 2-.64 2.8-.16.773-.293 1.747-.4 2.92.72-2.08 1.574-3.84 2.56-5.28 1.014-1.44 2.04-2.507 3.08-3.2 1.067-.72 2.067-1.08 3-1.08.934 0 1.587.213 1.96.64.4.427.6 1.08.6 1.96 0 .853-.253 2.4-.76 4.64-.213.96-.36 1.68-.44 2.16 1.334-3.28 2.814-5.667 4.44-7.16 1.627-1.493 3.147-2.24 4.56-2.24 1.734 0 2.6.867 2.6 2.6 0 1.04-.293 2.92-.88 5.64-.506 2.32-.76 3.853-.76 4.6 0 1.067.387 1.6 1.16 1.6.534 0 1.16-.32 1.88-.96.747-.667 1.734-1.733 2.96-3.2.32-.373.68-.56 1.08-.56.347 0 .614.16.8.48.214.32.32.76.32 1.32 0 1.067-.253 1.893-.76 2.48-1.146 1.413-2.386 2.573-3.72 3.48-1.306.907-2.8 1.36-4.48 1.36-1.36 0-2.386-.387-3.08-1.16-.693-.8-1.04-1.947-1.04-3.44 0-.747.187-2.08.56-4 .347-1.68.52-2.84.52-3.48 0-.427-.146-.64-.44-.64-.346 0-.84.453-1.48 1.36-.64.88-1.28 2.053-1.92 3.52a28.732 28.732 0 00-1.56 4.64c-.293 1.28-.64 2.133-1.04 2.56-.373.427-.986.64-1.84.64-.88 0-1.546-.413-2-1.24-.426-.853-.64-1.88-.64-3.08 0-1.013.134-2.48.4-4.4.214-1.707.32-2.827.32-3.36 0-.427-.146-.64-.44-.64-.4 0-.906.48-1.52 1.44-.613.96-1.213 2.187-1.8 3.68a37.658 37.658 0 00-1.36 4.4c-.293 1.253-.64 2.107-1.04 2.56-.373.427-.973.64-1.8.64zm48.046-9.12c.347 0 .613.16.8.48.213.32.32.76.32 1.32 0 1.067-.253 1.893-.76 2.48-1.227 1.413-2.493 2.573-3.8 3.48-1.28.907-2.747 1.36-4.4 1.36-1.387 0-2.36-.427-2.92-1.28s-.84-2.133-.84-3.84c0-.72.067-1.587.2-2.6-2.347 0-3.973-.027-4.88-.08-.053.747-.08 1.267-.08 1.56v.84c-.027 1.653-.067 2.813-.12 3.48-.053.667-.213 1.16-.48 1.48-.267.293-.707.44-1.32.44-1.013 0-1.733-.533-2.16-1.6-.4-1.067-.6-2.773-.6-5.12 0-3.467.493-6.76 1.48-9.88.24-.773.627-1.333 1.16-1.68.533-.373 1.307-.56 2.32-.56.533 0 .907.067 1.12.2.213.133.32.387.32.76 0 .427-.2 1.387-.6 2.88-.213.88-.413 1.947-.6 3.2h5.12c.267-1.253.653-2.853 1.16-4.8.213-.8.533-1.373.96-1.72.453-.347 1.12-.52 2-.52.613 0 1.04.08 1.28.24.24.133.36.4.36.8 0 .667-.333 2.493-1 5.48-.747 3.413-1.12 5.52-1.12 6.32 0 .507.107.907.32 1.2.213.267.493.4.84.4.533 0 1.16-.32 1.88-.96.747-.667 1.733-1.733 2.96-3.2.32-.373.68-.56 1.08-.56zm15.704 0c.347 0 .614.16.8.48.214.32.32.76.32 1.32 0 1.067-.253 1.893-.76 2.48-.986 1.2-2.386 2.307-4.2 3.32a11.486 11.486 0 01-5.76 1.52c-2.8 0-4.973-.76-6.52-2.28-1.546-1.52-2.32-3.6-2.32-6.24 0-1.84.387-3.547 1.16-5.12.774-1.6 1.84-2.867 3.2-3.8 1.387-.933 2.947-1.4 4.68-1.4 1.547 0 2.787.467 3.72 1.4.934.907 1.4 2.147 1.4 3.72 0 1.84-.666 3.427-2 4.76-1.306 1.307-3.533 2.347-6.68 3.12.667 1.227 1.934 1.84 3.8 1.84 1.2 0 2.56-.413 4.08-1.24a13.714 13.714 0 004-3.32c.32-.373.68-.56 1.08-.56zm-10.08-5.8c-.986 0-1.826.573-2.52 1.72-.666 1.147-1 2.533-1 4.16v.08c1.574-.373 2.814-.933 3.72-1.68.907-.747 1.36-1.613 1.36-2.6 0-.507-.146-.907-.44-1.2-.266-.32-.64-.48-1.12-.48zm30.085 5.8c.346 0 .613.16.8.48.213.32.32.76.32 1.32 0 1.067-.254 1.893-.76 2.48-1.147 1.413-2.387 2.573-3.72 3.48-1.307.907-2.8 1.36-4.48 1.36-1.414 0-2.56-.507-3.44-1.52-1.52.987-3.107 1.493-4.76 1.52-.347 5.147-1.134 9.44-2.36 12.88-1.227 3.467-3.027 5.2-5.4 5.2-1.44 0-2.507-.52-3.2-1.56-.694-1.04-1.04-2.48-1.04-4.32 0-2.613.6-5.667 1.8-9.16 1.2-3.467 3.053-7.293 5.56-11.48 0-3.893-.027-6.6-.08-8.12-.027-.773.28-1.387.92-1.84.64-.453 1.44-.68 2.4-.68.56 0 .96.12 1.2.36.266.213.413.653.44 1.32 0 .667.013 1.16.04 1.48.853-1.067 1.693-1.827 2.52-2.28a5.17 5.17 0 012.64-.72c1.493 0 2.706.6 3.64 1.8.96 1.2 1.44 2.773 1.44 4.72 0 1.413-.227 2.787-.68 4.12a13.476 13.476 0 01-1.88 3.64c.56.16 1.026.24 1.4.24.88 0 1.72-.32 2.52-.96.8-.64 1.826-1.707 3.08-3.2.32-.373.68-.56 1.08-.56zm-15.84 5.28c.96-.213 1.84-.733 2.64-1.56.826-.853 1.48-1.893 1.96-3.12.48-1.253.72-2.56.72-3.92 0-.8-.16-1.4-.48-1.8a1.52 1.52 0 00-1.28-.64c-.96 0-2.12 1.013-3.48 3.04a243.85 243.85 0 00-.04 5.16c0 1.227-.014 2.173-.04 2.84zm-7.64 18c.72 0 1.32-1.573 1.8-4.72.48-3.12.786-7.013.92-11.68-1.147 2.667-2.054 5.213-2.72 7.64-.667 2.427-1 4.467-1 6.12 0 .853.106 1.507.32 1.96.186.453.413.68.68.68zm52.443-23.2c.347 0 .614.173.8.52.214.32.32.733.32 1.24 0 .613-.093 1.093-.28 1.44-.186.347-.48.653-.88.92a395.208 395.208 0 00-5.04 3.44l-2.56 1.72c-1.013 5.52-2.346 9.853-4 13-1.626 3.173-3.706 4.76-6.24 4.76-1.36 0-2.466-.427-3.32-1.28-.853-.827-1.28-1.92-1.28-3.28 0-1.893.747-3.933 2.24-6.12 1.494-2.16 4.294-4.827 8.4-8l.24-1.56a4.732 4.732 0 01-1.8 1.68c-.72.373-1.44.56-2.16.56-1.653 0-2.973-.6-3.96-1.8-.986-1.2-1.48-2.773-1.48-4.72 0-2.133.494-4.147 1.48-6.04.987-1.92 2.294-3.453 3.92-4.6 1.654-1.173 3.4-1.76 5.24-1.76.587 0 .974.12 1.16.36.214.213.387.613.52 1.2a8.596 8.596 0 011.76-.16c.667 0 1.134.107 1.4.32.294.187.44.573.44 1.16 0 .32-.013.573-.04.76-.106.827-.44 2.92-1 6.28-.106.64-.226 1.347-.36 2.12a163.88 163.88 0 01-.36 2.4 84.297 84.297 0 015.92-4.24c.347-.213.654-.32.92-.32zm-14.12 5c.614 0 1.2-.373 1.76-1.12.56-.747.96-1.813 1.2-3.2l1.28-6.84c-1.093.027-2.106.453-3.04 1.28-.933.8-1.68 1.867-2.24 3.2a10.838 10.838 0 00-.84 4.24c0 .827.16 1.44.48 1.84.347.4.814.6 1.4.6zm-3.32 18.16c.667 0 1.414-.8 2.24-2.4.854-1.6 1.667-4.147 2.44-7.64-2.053 1.76-3.533 3.347-4.44 4.76-.906 1.413-1.36 2.653-1.36 3.72 0 .453.08.827.24 1.12.187.293.48.44.88.44zm39.701-23.24c.347 0 .613.16.8.48.213.32.32.76.32 1.32 0 1.067-.253 1.893-.76 2.48-.88 1.04-1.653 1.88-2.32 2.52-.64.613-1.44 1.16-2.4 1.64-.933.453-2 .68-3.2.68-1.573 0-2.693-.613-3.36-1.84-.667-1.253-1-3.133-1-5.64 0-1.253.053-2.467.16-3.64h-.08c-1.067 3.547-2.387 6.28-3.96 8.2-1.547 1.92-3.32 2.88-5.32 2.88-1.36 0-2.427-.493-3.2-1.48-.773-.987-1.16-2.227-1.16-3.72 0-1.333.307-2.413.92-3.24.613-.827 1.48-1.24 2.6-1.24.507 0 .88.107 1.12.32.267.213.373.507.32.88-.213 1.28-.32 2.16-.32 2.64 0 .96.24 1.44.72 1.44.267 0 .56-.2.88-.6.347-.4.92-1.373 1.72-2.92a62.862 62.862 0 001.88-3.96 61.208 61.208 0 001.64-3.92c.427-1.12.92-1.88 1.48-2.28.56-.427 1.36-.64 2.4-.64 1.013 0 1.76.2 2.24.6.48.4.72 1.053.72 1.96l-.08 2.96c-.107 2.24-.16 3.853-.16 4.84 0 2.8.573 4.2 1.72 4.2.48 0 .947-.227 1.4-.68.48-.453 1.213-1.28 2.2-2.48l1-1.2c.32-.373.68-.56 1.08-.56zm22.193 0c.347 0 .614.16.8.48.214.32.32.76.32 1.32 0 1.067-.253 1.893-.76 2.48-1.386 1.627-2.72 2.84-4 3.64-1.28.8-2.546 1.2-3.8 1.2-1.093 0-1.933-.387-2.52-1.16-.586-.773-.88-1.88-.88-3.32 0-.773.08-1.613.24-2.52h-.08c-2.48 4.667-5.64 7-9.48 7-1.653 0-3-.48-4.04-1.44-1.013-.96-1.52-2.227-1.52-3.8 0-1.387.307-2.48.92-3.28.64-.8 1.507-1.2 2.6-1.2.96 0 1.44.387 1.44 1.16 0 .107-.026.293-.08.56a8.58 8.58 0 00-.08.96c0 .853.187 1.56.56 2.12.374.56.88.84 1.52.84.827 0 1.667-.253 2.52-.76.854-.533 1.694-1.28 2.52-2.24h-.52c-1.6 0-2.88-.507-3.84-1.52-.933-1.013-1.4-2.373-1.4-4.08 0-1.973.574-3.493 1.72-4.56 1.147-1.093 2.747-1.64 4.8-1.64 1.44 0 2.92.227 4.44.68.294-.4.907-.6 1.84-.6.534 0 .947.133 1.24.4.32.24.454.573.4 1-.053.667-.293 1.853-.72 3.56a79.792 79.792 0 00-.92 4.4 20.176 20.176 0 00-.32 3.44c0 .507.094.907.28 1.2.214.267.507.4.88.4.507 0 1.12-.307 1.84-.92s1.72-1.693 3-3.24c.294-.373.654-.56 1.08-.56zm-11.68-1.04a23.493 23.493 0 002.16-5.04c-.96-.293-1.813-.44-2.56-.44-1.066 0-1.893.253-2.48.76-.586.507-.88 1.227-.88 2.16 0 .747.24 1.373.72 1.88.507.507 1.134.76 1.88.76.347 0 .734-.027 1.16-.08zm22.985 10.16c-1.013 0-1.733-.533-2.16-1.6-.4-1.067-.6-2.773-.6-5.12 0-3.467.493-6.76 1.48-9.88.24-.773.627-1.333 1.16-1.68.56-.373 1.333-.56 2.32-.56.533 0 .907.067 1.12.2.213.133.32.387.32.76 0 .427-.2 1.387-.6 2.88l-.36 1.28a40.21 40.21 0 00-.48 2.36 29.38 29.38 0 00-.28 2.92c.96-3.733 2.173-6.4 3.64-8 1.467-1.6 3.24-2.4 5.32-2.4 1.387 0 2.467.44 3.24 1.32.8.853 1.2 1.96 1.2 3.32 0 1.12-.253 2.067-.76 2.84-.48.773-1.12 1.16-1.92 1.16-.507 0-.92-.12-1.24-.36-.293-.24-.44-.573-.44-1 0-.187.027-.4.08-.64.053-.24.093-.413.12-.52.133-.4.2-.773.2-1.12 0-.72-.347-1.08-1.04-1.08-.533 0-1.053.28-1.56.84-.507.533-.92 1.267-1.24 2.2-.293.907-.44 1.893-.44 2.96 0 1.44.333 2.6 1 3.48.667.853 1.627 1.28 2.88 1.28.987 0 1.867-.32 2.64-.96.773-.667 1.84-1.813 3.2-3.44.32-.373.68-.56 1.08-.56.347 0 .613.16.8.48.213.32.32.76.32 1.32 0 1.067-.253 1.893-.76 2.48-1.2 1.44-2.4 2.613-3.6 3.52-1.2.88-2.56 1.32-4.08 1.32-1.253 0-2.4-.267-3.44-.8-1.013-.56-1.84-1.227-2.48-2-.64-.773-1.053-1.52-1.24-2.24-.053.213-.253.96-.6 2.24-.293 1.067-.64 1.8-1.04 2.2-.373.4-.96.6-1.76.6zm20.674 0c-1.654 0-2.974-.6-3.96-1.8-.987-1.2-1.48-2.773-1.48-4.72 0-2.133.493-4.147 1.48-6.04.986-1.92 2.293-3.453 3.92-4.6 1.653-1.173 3.4-1.76 5.24-1.76.586 0 .973.12 1.16.36.213.213.386.613.52 1.2a9.359 9.359 0 011.76-.16c1.306 0 1.96.467 1.96 1.4 0 .56-.2 1.893-.6 4-.614 3.067-.92 5.2-.92 6.4 0 .4.093.72.28.96.213.24.48.36.8.36.506 0 1.12-.32 1.84-.96.72-.667 1.693-1.733 2.92-3.2.32-.373.68-.56 1.08-.56.346 0 .613.16.8.48.213.32.32.76.32 1.32 0 1.067-.254 1.893-.76 2.48-1.094 1.36-2.254 2.507-3.48 3.44-1.227.933-2.414 1.4-3.56 1.4-.88 0-1.694-.293-2.44-.88-.72-.613-1.267-1.44-1.64-2.48-1.387 2.24-3.134 3.36-5.24 3.36zm1.44-4.04c.586 0 1.146-.347 1.68-1.04.533-.693.92-1.613 1.16-2.76l1.48-7.36c-1.12.027-2.16.453-3.12 1.28-.934.8-1.68 1.867-2.24 3.2a10.838 10.838 0 00-.84 4.24c0 .827.16 1.44.48 1.84.346.4.813.6 1.4.6zm43.389-5.08c.346 0 .613.16.8.48.213.32.32.76.32 1.32 0 1.067-.254 1.893-.76 2.48-1.227 1.413-2.494 2.573-3.8 3.48-1.28.907-2.747 1.36-4.4 1.36-1.44 0-2.6-.507-3.48-1.52-1.574 1.013-3.187 1.52-4.84 1.52-.4 0-.734-.067-1-.2-.134 1.867-.2 4.16-.2 6.88l.04 4.32c0 1.467-.787 2.2-2.36 2.2-.72 0-1.294-.173-1.72-.52-.4-.347-.6-.88-.6-1.6 0-3.627.093-6.613.28-8.96.213-2.507.453-4.427.72-5.76h-.08c-.827 1.307-1.64 2.24-2.44 2.8-.774.56-1.614.84-2.52.84-1.654 0-2.974-.6-3.96-1.8-.987-1.2-1.48-2.773-1.48-4.72 0-2.133.493-4.147 1.48-6.04.986-1.92 2.293-3.453 3.92-4.6 1.653-1.173 3.4-1.76 5.24-1.76.426 0 .773.067 1.04.2.24-1.52.493-3.013.76-4.48.293-1.467.6-2.92.92-4.36l.24-1.12c.213-1.067.56-1.813 1.04-2.24.506-.427 1.133-.64 1.88-.64.773 0 1.32.12 1.64.36.346.24.52.64.52 1.2 0 .373-.054.76-.16 1.16-.56 2.267-1.107 4.507-1.64 6.72a137.742 137.742 0 00-1.48 6.84h.08c1.466-2.427 3.173-3.64 5.12-3.64 1.653 0 2.946.6 3.88 1.8.933 1.173 1.4 2.747 1.4 4.72 0 1.387-.227 2.76-.68 4.12a12.651 12.651 0 01-1.84 3.64c.56.16 1.04.24 1.44.24.88 0 1.72-.32 2.52-.96.8-.64 1.826-1.707 3.08-3.2.32-.373.68-.56 1.08-.56zm-20.36-6.08c-1.094.027-2.107.453-3.04 1.28-.934.8-1.68 1.867-2.24 3.2a10.838 10.838 0 00-.84 4.24c0 .827.16 1.44.48 1.84.346.4.813.6 1.4.6.613 0 1.2-.373 1.76-1.12.56-.773.96-1.84 1.2-3.2l1.28-6.84zm3.64 11.48c1.093-.027 2.106-.44 3.04-1.24.933-.827 1.68-1.907 2.24-3.24.56-1.333.84-2.747.84-4.24 0-.827-.174-1.44-.52-1.84-.32-.4-.774-.6-1.36-.6-.614 0-1.2.387-1.76 1.16-.56.747-.96 1.8-1.2 3.16l-1.28 6.84zm32.428-5.4c.346 0 .613.16.8.48.213.32.32.76.32 1.32 0 1.067-.254 1.893-.76 2.48-.987 1.2-2.387 2.307-4.2 3.32a11.491 11.491 0 01-5.76 1.52c-2.8 0-4.974-.76-6.52-2.28-1.547-1.52-2.32-3.6-2.32-6.24 0-1.84.386-3.547 1.16-5.12.773-1.6 1.84-2.867 3.2-3.8 1.386-.933 2.946-1.4 4.68-1.4 1.546 0 2.786.467 3.72 1.4.933.907 1.4 2.147 1.4 3.72 0 1.84-.667 3.427-2 4.76-1.307 1.307-3.534 2.347-6.68 3.12.666 1.227 1.933 1.84 3.8 1.84 1.2 0 2.56-.413 4.08-1.24a13.726 13.726 0 004-3.32c.32-.373.68-.56 1.08-.56zm-10.08-5.8c-.987 0-1.827.573-2.52 1.72-.667 1.147-1 2.533-1 4.16v.08c1.573-.373 2.813-.933 3.72-1.68.906-.747 1.36-1.613 1.36-2.6 0-.507-.147-.907-.44-1.2-.267-.32-.64-.48-1.12-.48zm14.169 21.04c-.587 0-1.053-.133-1.4-.4s-.52-.693-.52-1.28c0-.24.04-.52.12-.84.293-1.227.507-2.36.64-3.4.16-1.04.24-2.2.24-3.48 0-1.333.307-2.36.92-3.08.64-.72 1.453-1.08 2.44-1.08.96 0 1.68.267 2.16.8.507.507.76 1.2.76 2.08 0 .933-.28 2.173-.84 3.72a32.62 32.62 0 01-2.04 4.52c-.533.987-.96 1.64-1.28 1.96-.293.32-.693.48-1.2.48zm41.579-15.24c.347 0 .614.16.8.48.214.32.32.76.32 1.32 0 1.067-.253 1.893-.76 2.48-1.146 1.413-2.386 2.573-3.72 3.48-1.306.907-2.8 1.36-4.48 1.36-1.413 0-2.56-.507-3.44-1.52-1.52.987-3.106 1.493-4.76 1.52-.346 5.147-1.133 9.44-2.36 12.88-1.226 3.467-3.026 5.2-5.4 5.2-1.44 0-2.506-.52-3.2-1.56-.693-1.04-1.04-2.48-1.04-4.32 0-2.613.6-5.667 1.8-9.16 1.2-3.467 3.054-7.293 5.56-11.48 0-3.893-.026-6.6-.08-8.12-.026-.773.28-1.387.92-1.84.64-.453 1.44-.68 2.4-.68.56 0 .96.12 1.2.36.267.213.414.653.44 1.32 0 .667.014 1.16.04 1.48.854-1.067 1.694-1.827 2.52-2.28a5.176 5.176 0 012.64-.72c1.494 0 2.707.6 3.64 1.8.96 1.2 1.44 2.773 1.44 4.72 0 1.413-.226 2.787-.68 4.12a13.447 13.447 0 01-1.88 3.64c.56.16 1.027.24 1.4.24.88 0 1.72-.32 2.52-.96.8-.64 1.827-1.707 3.08-3.2.32-.373.68-.56 1.08-.56zm-15.84 5.28c.96-.213 1.84-.733 2.64-1.56.827-.853 1.48-1.893 1.96-3.12.48-1.253.72-2.56.72-3.92 0-.8-.16-1.4-.48-1.8a1.519 1.519 0 00-1.28-.64c-.96 0-2.12 1.013-3.48 3.04-.026 1.173-.04 2.893-.04 5.16a75.41 75.41 0 01-.04 2.84zm-7.64 18c.72 0 1.32-1.573 1.8-4.72.48-3.12.787-7.013.92-11.68-1.146 2.667-2.053 5.213-2.72 7.64-.666 2.427-1 4.467-1 6.12 0 .853.107 1.507.32 1.96.187.453.414.68.68.68zm39.218-23.28c.347 0 .613.16.8.48.213.32.32.76.32 1.32 0 1.067-.253 1.893-.76 2.48-.987 1.2-2.387 2.307-4.2 3.32a11.491 11.491 0 01-5.76 1.52c-2.8 0-4.973-.76-6.52-2.28-1.547-1.52-2.32-3.6-2.32-6.24 0-1.84.387-3.547 1.16-5.12.773-1.6 1.84-2.867 3.2-3.8 1.387-.933 2.947-1.4 4.68-1.4 1.547 0 2.787.467 3.72 1.4.933.907 1.4 2.147 1.4 3.72 0 1.84-.667 3.427-2 4.76-1.307 1.307-3.533 2.347-6.68 3.12.667 1.227 1.933 1.84 3.8 1.84 1.2 0 2.56-.413 4.08-1.24a13.714 13.714 0 004-3.32c.32-.373.68-.56 1.08-.56zm-10.08-5.8c-.987 0-1.827.573-2.52 1.72-.667 1.147-1 2.533-1 4.16v.08c1.573-.373 2.813-.933 3.72-1.68.907-.747 1.36-1.613 1.36-2.6 0-.507-.147-.907-.44-1.2-.267-.32-.64-.48-1.12-.48zm15.583 14.92c-2.613 0-4.653-.733-6.12-2.2-1.44-1.493-2.16-3.453-2.16-5.88 0-2.16.427-4.053 1.28-5.68.854-1.627 1.96-2.88 3.32-3.76 1.36-.88 2.787-1.32 4.28-1.32 1.467 0 2.6.44 3.4 1.32.827.853 1.24 1.96 1.24 3.32 0 1.12-.253 2.067-.76 2.84-.48.773-1.12 1.16-1.92 1.16-.506 0-.92-.12-1.24-.36-.293-.24-.44-.573-.44-1 0-.187.027-.4.08-.64.054-.24.094-.413.12-.52.134-.4.2-.773.2-1.12 0-.347-.093-.613-.28-.8-.16-.187-.4-.28-.72-.28-.613 0-1.186.28-1.72.84-.533.533-.96 1.267-1.28 2.2-.32.933-.48 1.96-.48 3.08 0 3.093 1.347 4.64 4.04 4.64 1.094 0 2.267-.36 3.52-1.08 1.28-.747 2.534-1.853 3.76-3.32.32-.373.68-.56 1.08-.56.347 0 .614.16.8.48.214.32.32.76.32 1.32 0 1.013-.253 1.84-.76 2.48a13.122 13.122 0 01-4.52 3.6c-1.733.827-3.413 1.24-5.04 1.24zm9.927 0c-1.014 0-1.734-.533-2.16-1.6-.4-1.067-.6-2.773-.6-5.12 0-3.467.493-6.76 1.48-9.88.24-.773.626-1.333 1.16-1.68.56-.373 1.333-.56 2.32-.56.533 0 .906.067 1.12.2.213.133.32.387.32.76 0 .427-.2 1.387-.6 2.88-.267 1.067-.48 2-.64 2.8-.16.773-.294 1.747-.4 2.92.72-2.08 1.573-3.84 2.56-5.28 1.013-1.44 2.04-2.507 3.08-3.2 1.066-.72 2.066-1.08 3-1.08.933 0 1.586.213 1.96.64.4.427.6 1.08.6 1.96 0 .853-.254 2.4-.76 4.64-.214.96-.36 1.68-.44 2.16 1.333-3.28 2.813-5.667 4.44-7.16 1.626-1.493 3.146-2.24 4.56-2.24 1.733 0 2.6.867 2.6 2.6 0 1.04-.294 2.92-.88 5.64-.507 2.32-.76 3.853-.76 4.6 0 1.067.386 1.6 1.16 1.6.533 0 1.16-.32 1.88-.96.746-.667 1.733-1.733 2.96-3.2.32-.373.68-.56 1.08-.56.346 0 .613.16.8.48.213.32.32.76.32 1.32 0 1.067-.254 1.893-.76 2.48-1.147 1.413-2.387 2.573-3.72 3.48-1.307.907-2.8 1.36-4.48 1.36-1.36 0-2.387-.387-3.08-1.16-.694-.8-1.04-1.947-1.04-3.44 0-.747.186-2.08.56-4 .346-1.68.52-2.84.52-3.48 0-.427-.147-.64-.44-.64-.347 0-.84.453-1.48 1.36-.64.88-1.28 2.053-1.92 3.52a28.732 28.732 0 00-1.56 4.64c-.294 1.28-.64 2.133-1.04 2.56-.374.427-.987.64-1.84.64-.88 0-1.547-.413-2-1.24-.427-.853-.64-1.88-.64-3.08 0-1.013.133-2.48.4-4.4.213-1.707.32-2.827.32-3.36 0-.427-.147-.64-.44-.64-.4 0-.907.48-1.52 1.44-.614.96-1.214 2.187-1.8 3.68a37.468 37.468 0 00-1.36 4.4c-.294 1.253-.64 2.107-1.04 2.56-.374.427-.974.64-1.8.64zm47.325-12.48c.347 0 .614.173.8.52.187.347.28.787.28 1.32 0 1.28-.386 2.04-1.16 2.28-1.6.56-3.36.88-5.28.96-.506 2.24-1.506 4.04-3 5.4-1.493 1.333-3.186 2-5.08 2-1.6 0-2.973-.387-4.12-1.16-1.12-.773-1.973-1.8-2.56-3.08-.586-1.28-.88-2.667-.88-4.16 0-2.027.387-3.827 1.16-5.4.774-1.6 1.84-2.84 3.2-3.72a7.972 7.972 0 014.52-1.36c2.027 0 3.654.707 4.88 2.12 1.254 1.387 1.987 3.107 2.2 5.16 1.254-.08 2.747-.347 4.48-.8.214-.053.4-.08.56-.08zm-13.12 8.24c.854 0 1.587-.347 2.2-1.04.64-.693 1.067-1.693 1.28-3a5.685 5.685 0 01-1.92-2.2 6.693 6.693 0 01-.64-2.88c0-.427.04-.853.12-1.28h-.2c-1.066 0-1.96.52-2.68 1.56-.693 1.013-1.04 2.453-1.04 4.32 0 1.467.28 2.587.84 3.36.587.773 1.267 1.16 2.04 1.16zm32.127-4.88c.347 0 .614.16.8.48.214.32.32.76.32 1.32 0 1.067-.253 1.893-.76 2.48-1.146 1.413-2.386 2.573-3.72 3.48-1.306.907-2.8 1.36-4.48 1.36-1.413 0-2.56-.507-3.44-1.52-1.52.987-3.106 1.493-4.76 1.52-.346 5.147-1.133 9.44-2.36 12.88-1.226 3.467-3.026 5.2-5.4 5.2-1.44 0-2.506-.52-3.2-1.56-.693-1.04-1.04-2.48-1.04-4.32 0-2.613.6-5.667 1.8-9.16 1.2-3.467 3.054-7.293 5.56-11.48 0-3.893-.026-6.6-.08-8.12-.026-.773.28-1.387.92-1.84.64-.453 1.44-.68 2.4-.68.56 0 .96.12 1.2.36.267.213.414.653.44 1.32 0 .667.014 1.16.04 1.48.854-1.067 1.694-1.827 2.52-2.28a5.176 5.176 0 012.64-.72c1.494 0 2.707.6 3.64 1.8.96 1.2 1.44 2.773 1.44 4.72 0 1.413-.226 2.787-.68 4.12a13.447 13.447 0 01-1.88 3.64c.56.16 1.027.24 1.4.24.88 0 1.72-.32 2.52-.96.8-.64 1.827-1.707 3.08-3.2.32-.373.68-.56 1.08-.56zm-15.84 5.28c.96-.213 1.84-.733 2.64-1.56.827-.853 1.48-1.893 1.96-3.12.48-1.253.72-2.56.72-3.92 0-.8-.16-1.4-.48-1.8a1.519 1.519 0 00-1.28-.64c-.96 0-2.12 1.013-3.48 3.04-.026 1.173-.04 2.893-.04 5.16a75.41 75.41 0 01-.04 2.84zm-7.64 18c.72 0 1.32-1.573 1.8-4.72.48-3.12.787-7.013.92-11.68-1.146 2.667-2.053 5.213-2.72 7.64-.666 2.427-1 4.467-1 6.12 0 .853.107 1.507.32 1.96.187.453.414.68.68.68zm26.298-14.16c-1.653 0-2.973-.6-3.96-1.8-.987-1.2-1.48-2.773-1.48-4.72 0-2.133.493-4.147 1.48-6.04.987-1.92 2.293-3.453 3.92-4.6 1.653-1.173 3.4-1.76 5.24-1.76.587 0 .973.12 1.16.36.213.213.387.613.52 1.2a9.367 9.367 0 011.76-.16c1.307 0 1.96.467 1.96 1.4 0 .56-.2 1.893-.6 4-.613 3.067-.92 5.2-.92 6.4 0 .4.093.72.28.96.213.24.48.36.8.36.507 0 1.12-.32 1.84-.96.72-.667 1.693-1.733 2.92-3.2.32-.373.68-.56 1.08-.56.347 0 .613.16.8.48.213.32.32.76.32 1.32 0 1.067-.253 1.893-.76 2.48-1.093 1.36-2.253 2.507-3.48 3.44-1.227.933-2.413 1.4-3.56 1.4-.88 0-1.693-.293-2.44-.88-.72-.613-1.267-1.44-1.64-2.48-1.387 2.24-3.133 3.36-5.24 3.36zm1.44-4.04c.587 0 1.147-.347 1.68-1.04.533-.693.92-1.613 1.16-2.76l1.48-7.36c-1.12.027-2.16.453-3.12 1.28-.933.8-1.68 1.867-2.24 3.2a10.838 10.838 0 00-.84 4.24c0 .827.16 1.44.48 1.84.347.4.813.6 1.4.6zm33.549-5.08c.347 0 .613.16.8.48.213.32.32.76.32 1.32 0 1.067-.253 1.893-.76 2.48-1.227 1.413-2.493 2.573-3.8 3.48-1.28.907-2.747 1.36-4.4 1.36-1.387 0-2.36-.427-2.92-1.28s-.84-2.133-.84-3.84c0-.72.067-1.587.2-2.6-2.347 0-3.973-.027-4.88-.08-.053.747-.08 1.267-.08 1.56v.84c-.027 1.653-.067 2.813-.12 3.48-.053.667-.213 1.16-.48 1.48-.267.293-.707.44-1.32.44-1.013 0-1.733-.533-2.16-1.6-.4-1.067-.6-2.773-.6-5.12 0-3.467.493-6.76 1.48-9.88.24-.773.627-1.333 1.16-1.68.533-.373 1.307-.56 2.32-.56.533 0 .907.067 1.12.2.213.133.32.387.32.76 0 .427-.2 1.387-.6 2.88-.213.88-.413 1.947-.6 3.2h5.12c.267-1.253.653-2.853 1.16-4.8.213-.8.533-1.373.96-1.72.453-.347 1.12-.52 2-.52.613 0 1.04.08 1.28.24.24.133.36.4.36.8 0 .667-.333 2.493-1 5.48-.747 3.413-1.12 5.52-1.12 6.32 0 .507.107.907.32 1.2.213.267.493.4.84.4.533 0 1.16-.32 1.88-.96.747-.667 1.733-1.733 2.96-3.2.32-.373.68-.56 1.08-.56zm18.265-3.36c.346 0 .613.173.8.52.186.347.28.787.28 1.32 0 1.28-.387 2.04-1.16 2.28-1.6.56-3.36.88-5.28.96-.507 2.24-1.507 4.04-3 5.4-1.494 1.333-3.187 2-5.08 2-1.6 0-2.974-.387-4.12-1.16-1.12-.773-1.974-1.8-2.56-3.08-.587-1.28-.881-2.667-.881-4.16 0-2.027.387-3.827 1.161-5.4.773-1.6 1.84-2.84 3.2-3.72a7.97 7.97 0 014.52-1.36c2.026 0 3.653.707 4.88 2.12 1.253 1.387 1.986 3.107 2.2 5.16 1.253-.08 2.746-.347 4.48-.8.213-.053.4-.08.56-.08zm-13.12 8.24c.853 0 1.586-.347 2.2-1.04.64-.693 1.066-1.693 1.28-3a5.669 5.669 0 01-1.92-2.2 6.679 6.679 0 01-.64-2.88c0-.427.04-.853.12-1.28h-.2c-1.067 0-1.96.52-2.68 1.56-.694 1.013-1.04 2.453-1.04 4.32 0 1.467.28 2.587.84 3.36.586.773 1.266 1.16 2.04 1.16zm32.046-8.24c.347 0 .614.173.8.52.187.347.28.787.28 1.32 0 .667-.093 1.187-.28 1.56-.186.347-.48.587-.88.72-1.6.56-3.36.88-5.28.96-.533 2.213-1.546 4-3.04 5.36-1.466 1.36-3.093 2.04-4.88 2.04-2.693 0-4.653-1.027-5.88-3.08-1.226-2.053-1.84-5.027-1.84-8.92 0-3.44.427-7.173 1.28-11.2.854-4.053 2.094-7.493 3.72-10.32 1.654-2.853 3.614-4.28 5.88-4.28 1.227 0 2.214.533 2.96 1.6.747 1.04 1.12 2.4 1.12 4.08 0 2.187-.413 4.36-1.24 6.52-.826 2.16-2.2 4.427-4.12 6.8 1.787.133 3.24.88 4.36 2.24 1.12 1.333 1.787 2.987 2 4.96 1.254-.08 2.747-.347 4.48-.8.16-.053.347-.08.56-.08zm-11.04-21.36c-.533 0-1.12.8-1.76 2.4-.613 1.573-1.186 3.72-1.72 6.44-.533 2.72-.933 5.693-1.2 8.92 1.76-3.227 3.16-6.067 4.2-8.52 1.067-2.48 1.6-4.68 1.6-6.6 0-.853-.106-1.507-.32-1.96-.186-.453-.453-.68-.8-.68zm-2.08 29.6c.827 0 1.56-.347 2.2-1.04.64-.693 1.067-1.693 1.28-3a5.685 5.685 0 01-1.92-2.2 6.693 6.693 0 01-.64-2.88c0-.373.054-.88.16-1.52h-.12c-1.093 0-2.013.547-2.76 1.64-.72 1.067-1.08 2.507-1.08 4.32 0 1.52.28 2.68.84 3.48.587.8 1.267 1.2 2.04 1.2zm25.413 4.24c-1.2 0-2.187-.547-2.96-1.64-.747-1.12-1.12-2.507-1.12-4.16 0-2 .133-3.827.4-5.48.266-1.68.706-3.453 1.32-5.32.266-.8.64-1.373 1.12-1.72.48-.347 1.24-.52 2.28-.52.586 0 .986.093 1.2.28.24.187.36.467.36.84 0 .213-.147.933-.44 2.16-.267.987-.48 1.88-.64 2.68-.534 2.8-.8 4.667-.8 5.6 0 .56.066.96.2 1.2.133.213.346.32.64.32.4 0 .893-.4 1.48-1.2.613-.8 1.253-2.013 1.92-3.64.693-1.627 1.36-3.627 2-6 .213-.8.533-1.373.96-1.72.453-.347 1.12-.52 2-.52.613 0 1.04.08 1.28.24.24.133.36.4.36.8 0 .667-.334 2.493-1 5.48-.747 3.413-1.12 5.52-1.12 6.32 0 .507.106.907.32 1.2.213.267.493.4.84.4.533 0 1.16-.32 1.88-.96.746-.667 1.733-1.733 2.96-3.2.32-.373.68-.56 1.08-.56.346 0 .613.16.8.48.213.32.32.76.32 1.32 0 1.067-.254 1.893-.76 2.48-1.147 1.413-2.387 2.573-3.72 3.48-1.307.907-2.8 1.36-4.48 1.36-1.28 0-2.227-.493-2.84-1.48-.587-.987-.88-2.373-.88-4.16-.454 1.813-1.134 3.213-2.04 4.2-.907.96-1.88 1.44-2.92 1.44zm46.262-12.48c.347 0 .613.173.8.52.187.347.28.787.28 1.32 0 .667-.093 1.187-.28 1.56a1.49 1.49 0 01-.88.72c-1.92.667-3.947 1-6.08 1-.693 2.373-1.787 4.187-3.28 5.44-1.467 1.253-3.213 1.88-5.24 1.88-2.187 0-3.893-.64-5.12-1.92-1.227-1.307-1.84-3.293-1.84-5.96 0-2 .36-3.787 1.08-5.36.747-1.6 1.747-2.84 3-3.72 1.253-.907 2.64-1.36 4.16-1.36.8 0 1.493.147 2.08.44-.373-.613-.8-1.2-1.28-1.76a52.388 52.388 0 00-1.8-2.08 61.895 61.895 0 01-2.24-2.6 10.86 10.86 0 01-1.36-2.2 6.163 6.163 0 01-.56-2.56c0-1.227.347-2.2 1.04-2.92.693-.747 1.547-1.307 2.56-1.68 1.013-.373 2.373-.76 4.08-1.16a124.8 124.8 0 002.6-.68c.88-.267 1.613-.547 2.2-.84.16-.08.32-.12.48-.12.373 0 .667.24.88.72.24.48.36 1.04.36 1.68 0 .453-.067.867-.2 1.24-.133.347-.32.6-.56.76a7.602 7.602 0 01-2.28 1c-.8.187-1.773.36-2.92.52-1.253.187-2.173.4-2.76.64-.56.213-.84.64-.84 1.28 0 .427.2.92.6 1.48.427.533 1.08 1.28 1.96 2.24 1.173 1.28 2.16 2.44 2.96 3.48.8 1.013 1.493 2.213 2.08 3.6.613 1.36.92 2.813.92 4.36 0 .453-.027 1.107-.08 1.96 1.467-.08 3.107-.36 4.92-.84.16-.053.347-.08.56-.08zm-14.68 8.24c.827 0 1.587-.453 2.28-1.36.72-.933 1.293-2.133 1.72-3.6a5.875 5.875 0 01-1.16-1.92 7.038 7.038 0 01-.36-2.24c0-.24.027-.6.08-1.08l-.76-.04c-.667 0-1.293.28-1.88.84-.56.56-1.013 1.347-1.36 2.36-.347.987-.52 2.107-.52 3.36 0 1.173.147 2.08.44 2.72.32.64.827.96 1.52.96zm17.226 4.24c-1.653 0-2.973-.6-3.96-1.8-.986-1.2-1.48-2.773-1.48-4.72 0-2.133.494-4.147 1.48-6.04.987-1.92 2.294-3.453 3.92-4.6 1.654-1.173 3.4-1.76 5.24-1.76.587 0 .974.12 1.16.36.214.213.387.613.52 1.2a9.367 9.367 0 011.76-.16c1.307 0 1.96.467 1.96 1.4 0 .56-.2 1.893-.6 4-.613 3.067-.92 5.2-.92 6.4 0 .4.094.72.28.96.214.24.48.36.8.36.507 0 1.12-.32 1.84-.96.72-.667 1.694-1.733 2.92-3.2.32-.373.68-.56 1.08-.56.347 0 .614.16.8.48.214.32.32.76.32 1.32 0 1.067-.253 1.893-.76 2.48-1.093 1.36-2.253 2.507-3.48 3.44-1.226.933-2.413 1.4-3.56 1.4-.88 0-1.693-.293-2.44-.88-.72-.613-1.266-1.44-1.64-2.48-1.386 2.24-3.133 3.36-5.24 3.36zm1.44-4.04c.587 0 1.147-.347 1.68-1.04.534-.693.92-1.613 1.16-2.76l1.48-7.36c-1.12.027-2.16.453-3.12 1.28-.933.8-1.68 1.867-2.24 3.2a10.838 10.838 0 00-.84 4.24c0 .827.16 1.44.48 1.84.347.4.814.6 1.4.6zm33.549-5.08c.347 0 .614.16.8.48.214.32.32.76.32 1.32 0 1.067-.253 1.893-.76 2.48-1.226 1.413-2.493 2.573-3.8 3.48-1.28.907-2.746 1.36-4.4 1.36-1.386 0-2.36-.427-2.92-1.28s-.84-2.133-.84-3.84c0-.72.067-1.587.2-2.6-2.346 0-3.973-.027-4.88-.08-.053.747-.08 1.267-.08 1.56v.84c-.026 1.653-.066 2.813-.12 3.48-.053.667-.213 1.16-.48 1.48-.266.293-.706.44-1.32.44-1.013 0-1.733-.533-2.16-1.6-.4-1.067-.6-2.773-.6-5.12 0-3.467.494-6.76 1.48-9.88.24-.773.627-1.333 1.16-1.68.534-.373 1.307-.56 2.32-.56.534 0 .907.067 1.12.2.214.133.32.387.32.76 0 .427-.2 1.387-.6 2.88-.213.88-.413 1.947-.6 3.2h5.12c.267-1.253.654-2.853 1.16-4.8.214-.8.534-1.373.96-1.72.454-.347 1.12-.52 2-.52.614 0 1.04.08 1.28.24.24.133.36.4.36.8 0 .667-.333 2.493-1 5.48-.746 3.413-1.12 5.52-1.12 6.32 0 .507.107.907.32 1.2.214.267.494.4.84.4.534 0 1.16-.32 1.88-.96.747-.667 1.734-1.733 2.96-3.2.32-.373.68-.56 1.08-.56zm.705 9.12c-1.014 0-1.734-.533-2.16-1.6-.4-1.067-.6-2.773-.6-5.12 0-3.467.493-6.76 1.48-9.88.24-.773.626-1.333 1.16-1.68.56-.373 1.333-.56 2.32-.56.533 0 .906.067 1.12.2.213.133.32.387.32.76 0 .427-.2 1.387-.6 2.88-.054.187-.174.613-.36 1.28a40.21 40.21 0 00-.48 2.36c-.134.88-.227 1.853-.28 2.92.96-3.733 2.173-6.4 3.64-8 1.466-1.6 3.24-2.4 5.32-2.4 1.386 0 2.466.44 3.24 1.32.8.853 1.2 1.96 1.2 3.32 0 1.12-.254 2.067-.76 2.84-.48.773-1.12 1.16-1.92 1.16-.507 0-.92-.12-1.24-.36-.294-.24-.44-.573-.44-1 0-.187.026-.4.08-.64.053-.24.093-.413.12-.52.133-.4.2-.773.2-1.12 0-.72-.347-1.08-1.04-1.08-.534 0-1.054.28-1.56.84-.507.533-.92 1.267-1.24 2.2-.294.907-.44 1.893-.44 2.96 0 1.44.333 2.6 1 3.48.666.853 1.626 1.28 2.88 1.28a4.03 4.03 0 002.64-.96c.773-.667 1.84-1.813 3.2-3.44.32-.373.68-.56 1.08-.56.346 0 .613.16.8.48.213.32.32.76.32 1.32 0 1.067-.254 1.893-.76 2.48-1.2 1.44-2.4 2.613-3.6 3.52-1.2.88-2.56 1.32-4.08 1.32-1.254 0-2.4-.267-3.44-.8-1.014-.56-1.84-1.227-2.48-2-.64-.773-1.054-1.52-1.24-2.24-.054.213-.254.96-.6 2.24-.294 1.067-.64 1.8-1.04 2.2-.374.4-.96.6-1.76.6zm33.594-9.12c.346 0 .613.16.799.48.214.32.321.76.321 1.32 0 1.067-.254 1.893-.76 2.48-.987 1.2-2.387 2.307-4.2 3.32a11.491 11.491 0 01-5.76 1.52c-2.8 0-4.974-.76-6.52-2.28-1.547-1.52-2.321-3.6-2.321-6.24 0-1.84.387-3.547 1.161-5.12.773-1.6 1.84-2.867 3.2-3.8 1.386-.933 2.946-1.4 4.68-1.4 1.546 0 2.786.467 3.72 1.4.933.907 1.4 2.147 1.4 3.72 0 1.84-.667 3.427-2 4.76-1.307 1.307-3.534 2.347-6.68 3.12.666 1.227 1.933 1.84 3.8 1.84 1.2 0 2.56-.413 4.08-1.24a13.726 13.726 0 004-3.32c.32-.373.68-.56 1.08-.56zm-10.08-5.8c-.987 0-1.827.573-2.52 1.72-.667 1.147-1 2.533-1 4.16v.08c1.573-.373 2.813-.933 3.72-1.68.906-.747 1.36-1.613 1.36-2.6 0-.507-.147-.907-.44-1.2-.267-.32-.64-.48-1.12-.48zm10.783 14.92c-1.014 0-1.734-.533-2.16-1.6-.4-1.067-.6-2.773-.6-5.12 0-3.467.493-6.76 1.48-9.88.24-.773.626-1.333 1.16-1.68.56-.373 1.333-.56 2.32-.56.533 0 .906.067 1.12.2.213.133.32.387.32.76 0 .427-.2 1.387-.6 2.88-.267 1.067-.48 2-.64 2.8-.16.773-.294 1.747-.4 2.92.72-2.08 1.573-3.84 2.56-5.28 1.013-1.44 2.04-2.507 3.08-3.2 1.066-.72 2.066-1.08 3-1.08.933 0 1.586.213 1.96.64.4.427.6 1.08.6 1.96 0 .853-.254 2.4-.76 4.64-.214.96-.36 1.68-.44 2.16 1.333-3.28 2.813-5.667 4.44-7.16 1.626-1.493 3.146-2.24 4.56-2.24 1.733 0 2.6.867 2.6 2.6 0 1.04-.294 2.92-.88 5.64-.507 2.32-.76 3.853-.76 4.6 0 1.067.386 1.6 1.16 1.6.533 0 1.16-.32 1.88-.96.746-.667 1.733-1.733 2.96-3.2.32-.373.68-.56 1.08-.56.346 0 .613.16.8.48.213.32.32.76.32 1.32 0 1.067-.254 1.893-.76 2.48-1.147 1.413-2.387 2.573-3.72 3.48-1.307.907-2.8 1.36-4.48 1.36-1.36 0-2.387-.387-3.08-1.16-.694-.8-1.04-1.947-1.04-3.44 0-.747.186-2.08.56-4 .346-1.68.52-2.84.52-3.48 0-.427-.147-.64-.44-.64-.347 0-.84.453-1.48 1.36-.64.88-1.28 2.053-1.92 3.52a28.732 28.732 0 00-1.56 4.64c-.294 1.28-.64 2.133-1.04 2.56-.374.427-.987.64-1.84.64-.88 0-1.547-.413-2-1.24-.427-.853-.64-1.88-.64-3.08 0-1.013.133-2.48.4-4.4.213-1.707.32-2.827.32-3.36 0-.427-.147-.64-.44-.64-.4 0-.907.48-1.52 1.44-.614.96-1.214 2.187-1.8 3.68a37.468 37.468 0 00-1.36 4.4c-.294 1.253-.64 2.107-1.04 2.56-.374.427-.974.64-1.8.64zm48.045-9.12c.347 0 .614.16.8.48.214.32.32.76.32 1.32 0 1.067-.253 1.893-.76 2.48-1.226 1.413-2.493 2.573-3.8 3.48-1.28.907-2.746 1.36-4.4 1.36-1.386 0-2.36-.427-2.92-1.28s-.84-2.133-.84-3.84c0-.72.067-1.587.2-2.6-2.346 0-3.973-.027-4.88-.08-.053.747-.08 1.267-.08 1.56v.84c-.026 1.653-.066 2.813-.12 3.48-.053.667-.213 1.16-.48 1.48-.266.293-.706.44-1.32.44-1.013 0-1.733-.533-2.16-1.6-.4-1.067-.6-2.773-.6-5.12 0-3.467.494-6.76 1.48-9.88.24-.773.627-1.333 1.16-1.68.534-.373 1.307-.56 2.32-.56.534 0 .907.067 1.12.2.214.133.32.387.32.76 0 .427-.2 1.387-.6 2.88-.213.88-.413 1.947-.6 3.2h5.12c.267-1.253.654-2.853 1.16-4.8.214-.8.534-1.373.96-1.72.454-.347 1.12-.52 2-.52.614 0 1.04.08 1.28.24.24.133.36.4.36.8 0 .667-.333 2.493-1 5.48-.746 3.413-1.12 5.52-1.12 6.32 0 .507.107.907.32 1.2.214.267.494.4.84.4.534 0 1.16-.32 1.88-.96.747-.667 1.734-1.733 2.96-3.2.32-.373.68-.56 1.08-.56zm28.065 0c.346 0 .613.16.8.48.213.32.32.76.32 1.32 0 1.067-.254 1.893-.76 2.48-2.64 3.227-5.107 4.84-7.4 4.84-1.734 0-3-.613-3.8-1.84-.774-1.227-1.16-2.853-1.16-4.88v-.6c-1.467 2.213-3.094 3.987-4.88 5.32-1.76 1.333-3.614 2-5.56 2-2.32 0-4.174-.693-5.56-2.08-1.36-1.387-2.04-3.173-2.04-5.36 0-1.6.12-3.12.36-4.56a34.71 34.71 0 011.12-4.6c.24-.773.626-1.333 1.16-1.68.56-.373 1.36-.56 2.4-.56 1.2 0 1.8.32 1.8.96 0 .267-.2 1.227-.6 2.88l-.28 1.2-.56 2.4a8.732 8.732 0 012.56-1.76c1.013-.48 2.04-.72 3.08-.72 1.226 0 2.24.373 3.04 1.12.8.72 1.253 1.747 1.36 3.08 1.04-1.253 1.893-2.427 2.56-3.52a24.88 24.88 0 001.72-3.48c.24-.8.546-1.36.92-1.68.4-.32 1.04-.48 1.92-.48 1.36 0 2.04.453 2.04 1.36 0 .667-.254 2.213-.76 4.64-.64 2.933-.96 4.92-.96 5.96 0 .8.106 1.413.32 1.84.213.427.573.64 1.08.64.48 0 1.08-.333 1.8-1s1.68-1.72 2.88-3.16c.32-.373.68-.56 1.08-.56zm-18.72 1.56c0-1.413-.76-2.12-2.28-2.12-.907 0-1.707.253-2.4.76a6.234 6.234 0 00-1.6 1.76c.106.987.386 1.72.84 2.2.453.48 1.146.72 2.08.72 1.066 0 1.893-.293 2.48-.88.586-.587.88-1.4.88-2.44zm39.886-1.56c.346 0 .613.16.8.48.213.32.32.76.32 1.32 0 1.067-.254 1.893-.76 2.48-1.174 1.387-2.467 2.547-3.88 3.48-1.387.907-2.96 1.36-4.72 1.36-1.36 0-2.574-.253-3.64-.76a6.104 6.104 0 01-2.48-2.16c-1.52 1.92-3.32 2.88-5.4 2.88-1.467 0-2.627-.427-3.48-1.28-.854-.853-1.28-1.987-1.28-3.4 0-1.333.306-2.413.92-3.24.613-.827 1.48-1.24 2.6-1.24.96 0 1.44.36 1.44 1.08 0 .187-.027.52-.08 1-.08.96-.12 1.507-.12 1.64 0 .8.346 1.2 1.04 1.2.506 0 .986-.293 1.44-.88.48-.613.866-1.44 1.16-2.48.32-1.04.48-2.187.48-3.44 0-.96-.12-1.76-.36-2.4-.24-.667-.534-1-.88-1-.294 0-.507.08-.64.24-.134.133-.267.373-.4.72a2.88 2.88 0 01-.64 1.04c-.267.24-.734.36-1.4.36-.587 0-1.054-.2-1.4-.6-.347-.427-.52-1.067-.52-1.92 0-1.36.413-2.427 1.24-3.2.826-.773 1.893-1.16 3.2-1.16 1.12 0 2.133.28 3.04.84.906.533 1.6 1.32 2.08 2.36.8-1.067 1.693-1.867 2.68-2.4 1.013-.533 2-.8 2.96-.8 1.04 0 1.826.24 2.36.72.56.48.84 1.253.84 2.32 0 1.2-.227 2.147-.68 2.84-.454.667-1 1-1.64 1-.587 0-.987-.12-1.2-.36-.214-.24-.374-.587-.48-1.04-.054-.32-.134-.56-.24-.72-.107-.16-.294-.24-.56-.24-.32 0-.667.307-1.04.92-.347.587-.654 1.373-.92 2.36-.24.987-.36 2.013-.36 3.08 0 1.253.293 2.227.88 2.92.613.667 1.44 1 2.48 1s2.013-.347 2.92-1.04c.933-.72 2.013-1.827 3.24-3.32.32-.373.68-.56 1.08-.56zm27.197.08c.347 0 .614.16.8.48.214.32.32.747.32 1.28 0 1.147-.373 1.933-1.12 2.36-3.04 1.76-5.733 3.44-8.08 5.04.187.747.28 1.627.28 2.64 0 2.453-.466 4.853-1.4 7.2-.906 2.373-2.133 4.307-3.68 5.8-1.52 1.493-3.133 2.24-4.84 2.24-1.466 0-2.6-.413-3.4-1.24-.8-.8-1.2-1.947-1.2-3.44 0-2.267.68-4.467 2.04-6.6 1.36-2.133 3.747-4.533 7.16-7.2-.24-.347-.573-.653-1-.92-.4-.267-.946-.56-1.64-.88-.96-.427-1.653-.893-2.08-1.4-.426-.507-.64-1.067-.64-1.68 0-.907.267-1.573.8-2 .267-.213.707-.427 1.32-.64.64-.24 1.027-.387 1.16-.44 1.28-.453 2.347-.88 3.2-1.28a7.566 7.566 0 002.28-1.68c.667-.693 1-1.533 1-2.52 0-.56-.16-.987-.48-1.28-.32-.293-.853-.44-1.6-.44-.666 0-1.24.093-1.72.28-.453.16-.973.413-1.56.76-.48.24-.866.427-1.16.56-.266.107-.573.16-.92.16-1.04 0-1.56-.507-1.56-1.52 0-.667.294-1.293.88-1.88.614-.587 1.48-1.053 2.6-1.4s2.427-.52 3.92-.52c1.894 0 3.294.453 4.2 1.36.934.907 1.4 2.093 1.4 3.56 0 2.24-.853 4.067-2.56 5.48-1.68 1.413-3.853 2.507-6.52 3.28 1.867.613 3.267 1.44 4.2 2.48 2.374-1.68 5.267-3.573 8.68-5.68.347-.213.654-.32.92-.32zm-12.32 12.36c-4.053 3.413-6.08 6.52-6.08 9.32 0 1.067.374 1.6 1.12 1.6.64 0 1.347-.6 2.12-1.8.8-1.173 1.467-2.6 2-4.28.56-1.68.84-3.16.84-4.44v-.4zm15.513-3.32c-1.654 0-2.974-.6-3.96-1.8-.987-1.2-1.48-2.773-1.48-4.72 0-2.133.493-4.147 1.48-6.04.986-1.92 2.293-3.453 3.92-4.6 1.653-1.173 3.4-1.76 5.24-1.76.586 0 .973.12 1.16.36.213.213.386.613.52 1.2a9.359 9.359 0 011.76-.16c1.306 0 1.96.467 1.96 1.4 0 .56-.2 1.893-.6 4-.614 3.067-.92 5.2-.92 6.4 0 .4.093.72.28.96.213.24.48.36.8.36.506 0 1.12-.32 1.84-.96.72-.667 1.693-1.733 2.92-3.2.32-.373.68-.56 1.08-.56.346 0 .613.16.8.48.213.32.32.76.32 1.32 0 1.067-.254 1.893-.76 2.48-1.094 1.36-2.254 2.507-3.48 3.44-1.227.933-2.414 1.4-3.56 1.4-.88 0-1.694-.293-2.44-.88-.72-.613-1.267-1.44-1.64-2.48-1.387 2.24-3.134 3.36-5.24 3.36zm1.44-4.04c.586 0 1.146-.347 1.68-1.04.533-.693.92-1.613 1.16-2.76l1.48-7.36c-1.12.027-2.16.453-3.12 1.28-.934.8-1.68 1.867-2.24 3.2a10.838 10.838 0 00-.84 4.24c0 .827.16 1.44.48 1.84.346.4.813.6 1.4.6zm36.033-5.08c.34 0 .61.16.8.48.21.32.32.76.32 1.32 0 1.067-.26 1.893-.76 2.48a35.54 35.54 0 01-2.32 2.52c-.64.613-1.44 1.16-2.404 1.64-.934.453-2 .68-3.2.68-1.574 0-2.694-.613-3.36-1.84-.667-1.253-1-3.133-1-5.64 0-1.253.053-2.467.16-3.64h-.08c-1.067 3.547-2.387 6.28-3.96 8.2-1.547 1.92-3.32 2.88-5.32 2.88-1.36 0-2.427-.493-3.2-1.48-.774-.987-1.16-2.227-1.16-3.72 0-1.333.306-2.413.92-3.24.613-.827 1.48-1.24 2.6-1.24.506 0 .88.107 1.12.32.266.213.373.507.32.88-.214 1.28-.32 2.16-.32 2.64 0 .96.24 1.44.72 1.44.266 0 .56-.2.88-.6.346-.4.92-1.373 1.72-2.92a62.862 62.862 0 001.88-3.96 61.79 61.79 0 001.64-3.92c.426-1.12.92-1.88 1.48-2.28.56-.427 1.36-.64 2.4-.64 1.013 0 1.76.2 2.24.6.48.4.72 1.053.72 1.96l-.08 2.96c-.107 2.24-.16 3.853-.16 4.84 0 2.8.573 4.2 1.72 4.2.48 0 .946-.227 1.404-.68.48-.453 1.21-1.28 2.2-2.48l1-1.2c.32-.373.68-.56 1.08-.56zm18.75-3.36c.35 0 .61.173.8.52.19.347.28.787.28 1.32 0 1.28-.39 2.04-1.16 2.28-1.6.56-3.36.88-5.28.96-.51 2.24-1.51 4.04-3 5.4-1.49 1.333-3.19 2-5.08 2-1.6 0-2.97-.387-4.12-1.16-1.12-.773-1.97-1.8-2.56-3.08-.59-1.28-.88-2.667-.88-4.16 0-2.027.39-3.827 1.16-5.4.77-1.6 1.84-2.84 3.2-3.72a7.979 7.979 0 014.52-1.36c2.03 0 3.65.707 4.88 2.12 1.25 1.387 1.99 3.107 2.2 5.16 1.25-.08 2.75-.347 4.48-.8.21-.053.4-.08.56-.08zm-13.12 8.24c.85 0 1.59-.347 2.2-1.04.64-.693 1.07-1.693 1.28-3a5.62 5.62 0 01-1.92-2.2 6.636 6.636 0 01-.64-2.88c0-.427.04-.853.12-1.28h-.2c-1.07 0-1.96.52-2.68 1.56-.69 1.013-1.04 2.453-1.04 4.32 0 1.467.28 2.587.84 3.36.59.773 1.27 1.16 2.04 1.16zm32.05-8.24c.34 0 .61.173.8.52.18.347.28.787.28 1.32 0 .667-.1 1.187-.28 1.56-.19.347-.48.587-.88.72-1.6.56-3.36.88-5.28.96-.54 2.213-1.55 4-3.04 5.36-1.47 1.36-3.1 2.04-4.88 2.04-2.7 0-4.66-1.027-5.88-3.08-1.23-2.053-1.84-5.027-1.84-8.92 0-3.44.42-7.173 1.28-11.2.85-4.053 2.09-7.493 3.72-10.32 1.65-2.853 3.61-4.28 5.88-4.28 1.22 0 2.21.533 2.96 1.6.74 1.04 1.12 2.4 1.12 4.08 0 2.187-.42 4.36-1.24 6.52-.83 2.16-2.2 4.427-4.12 6.8 1.78.133 3.24.88 4.36 2.24 1.12 1.333 1.78 2.987 2 4.96 1.25-.08 2.74-.347 4.48-.8.16-.053.34-.08.56-.08zm-11.04-21.36c-.54 0-1.12.8-1.76 2.4-.62 1.573-1.19 3.72-1.72 6.44-.54 2.72-.94 5.693-1.2 8.92 1.76-3.227 3.16-6.067 4.2-8.52 1.06-2.48 1.6-4.68 1.6-6.6 0-.853-.11-1.507-.32-1.96-.19-.453-.46-.68-.8-.68zm-2.08 29.6c.82 0 1.56-.347 2.2-1.04.64-.693 1.06-1.693 1.28-3a5.62 5.62 0 01-1.92-2.2 6.636 6.636 0 01-.64-2.88c0-.373.05-.88.16-1.52h-.12c-1.1 0-2.02.547-2.76 1.64-.72 1.067-1.08 2.507-1.08 4.32 0 1.52.28 2.68.84 3.48.58.8 1.26 1.2 2.04 1.2zM206.816 205.441a91.232 91.232 0 01-7.098 19.128 101.695 101.695 0 01-10.92 17.201c-9.099 11.008-19.973 19.54-32.622 25.596-12.649 6.054-26.07 9.082-40.265 9.082-12.012 0-23.796-2.477-35.352-7.431-11.557-4.954-21.93-11.743-31.121-20.367-9.145-8.624-16.515-18.623-22.112-29.999C21.776 207.276 19 195.074 19 182.047v-.55c0-7.339 1.046-14.633 3.094-21.88 2.047-7.248 5.005-14.174 8.735-20.779 3.777-6.606 8.372-12.843 13.695-18.715 5.369-5.871 11.42-11.193 18.154-15.963 7.461-4.954 15.56-8.761 24.296-11.421a102.038 102.038 0 0126.753-4.404 98.281 98.281 0 0126.889 2.89c8.827 2.202 16.971 5.596 24.433 10.183.181 0 .273.092.273.275.727.367 1.637.917 2.73 1.651 8.007 5.505 14.922 11.835 20.746 18.991.365.734.546 1.284.546 1.651.365 1.468 0 2.568-1.091 3.302-1.639 1.285-3.095 1.192-4.368-.275-8.372-10.458-18.472-18.485-30.302-24.082-11.829-5.596-24.387-8.394-37.672-8.394-4.186 0-8.19.276-12.012.826-9.282 1.651-17.88 5.045-25.797 10.183-7.916 5.138-14.787 11.56-20.611 19.265-5.824 7.707-10.419 16.421-13.785 26.147-3.367 9.724-5.051 20.09-5.051 31.099v1.927c.182 11.926 2.366 23.073 6.552 33.438 4.186 10.368 9.782 19.404 16.788 27.11 7.007 7.707 15.151 13.761 24.433 18.165 9.282 4.403 19.109 6.605 29.483 6.605 8.917 0 17.289-1.56 25.114-4.679 7.826-3.119 14.878-7.431 21.157-12.935 6.28-5.505 11.784-12.018 16.516-19.54 4.731-7.524 8.463-15.78 11.193-24.77h-38.492c-2.001 0-3.003-1.102-3.003-3.304 0-2.017 1.002-3.026 3.003-3.026h52.413c.911 0 1.684.275 2.321.825.638.55.956 1.284.956 2.201l-.273 1.377zM749.361 182.234c0 12.445-2.524 24.277-7.574 35.495-5.049 11.219-11.829 21.117-20.339 29.697-8.51 8.578-18.328 15.461-29.456 20.646-11.127 5.185-22.77 8.06-34.925 8.626h-33.384c-2.244 0-3.367-1.037-3.367-3.111 0-2.074 1.123-3.111 3.367-3.111h12.344V94.559h-12.625c-2.056 0-3.086-1.131-3.086-3.394 0-1.886 1.03-2.828 3.086-2.828h31.42c11.222 0 22.489 2.498 33.804 7.495 11.315 4.996 21.461 11.784 30.438 20.363 8.977 8.579 16.27 18.572 21.882 29.98 5.61 11.407 8.415 23.427 8.415 36.059zm-88.086 87.676c10.847-1.132 21.039-4.242 30.578-9.333 9.538-5.091 17.766-11.549 24.686-19.374 6.92-7.824 12.39-16.781 16.411-26.868 4.021-10.088 6.032-20.787 6.032-32.101 0-11.313-2.011-22.013-6.032-32.101-4.021-10.087-9.491-18.996-16.411-26.726-6.92-7.731-15.148-14.095-24.686-19.091-9.539-4.997-19.731-8.06-30.578-9.191V269.91zM617.982 182.646c0 15.308-4.161 29.778-12.479 43.405-6.656 10.066-14.352 19.083-23.087 27.051-8.737 7.969-19.032 14.05-30.887 18.243-10.191 3.564-20.383 5.346-30.574 5.346-11.025 0-21.63-1.887-31.821-5.662-8.528-3.144-16.693-7.652-24.493-13.523-7.798-5.873-14.767-12.74-20.903-20.601a102.827 102.827 0 01-14.663-25.635c-3.639-9.228-5.458-18.767-5.458-28.624 0-15.308 4.159-29.775 12.479-43.406a131.322 131.322 0 0115.756-19.972 103.138 103.138 0 0119.652-16.041c7.177-4.508 14.925-8.072 23.245-10.695 8.318-2.62 17.055-3.931 26.206-3.931 15.807 0 30.522 3.88 44.145 11.639 13.623 7.757 25.634 18.556 36.035 32.397 5.406 7.337 9.567 15.253 12.479 23.746a80.44 80.44 0 014.368 26.263zm-97.027 88.383c10.398 0 20.227-2.411 29.482-7.232 9.254-4.824 17.367-11.272 24.334-19.344 6.967-8.073 12.48-17.458 16.534-28.152 4.058-10.693 6.085-21.912 6.085-33.655 0-11.952-2.027-23.276-6.085-33.968-4.054-10.695-9.567-20.08-16.534-28.152-6.967-8.073-15.08-14.468-24.334-19.185-9.255-4.72-19.084-7.079-29.482-7.079-10.399 0-20.228 2.359-29.482 7.079-9.257 4.717-17.368 11.112-24.335 19.185-6.969 8.072-12.479 17.457-16.537 28.152-4.055 10.692-6.081 22.016-6.081 33.968 0 11.743 2.026 22.962 6.081 33.655 4.058 10.694 9.568 20.079 16.537 28.152 6.967 8.072 15.078 14.52 24.335 19.344 9.254 4.821 19.083 7.232 29.482 7.232zM409.076 182.05c0 15.308-4.161 29.778-12.479 43.405-6.656 10.066-14.353 19.083-23.087 27.052-8.737 7.968-19.032 14.049-30.887 18.242-10.191 3.564-20.383 5.346-30.574 5.346-11.025 0-21.63-1.886-31.822-5.661-8.527-3.144-16.692-7.653-24.492-13.523-7.797-5.873-14.767-12.741-20.903-20.602a102.821 102.821 0 01-14.663-25.634c-3.639-9.229-5.458-18.768-5.458-28.625 0-15.308 4.158-29.775 12.479-43.405a131.315 131.315 0 0115.755-19.972 103.069 103.069 0 0119.653-16.041c7.177-4.51 14.925-8.073 23.245-10.695 8.318-2.62 17.055-3.932 26.206-3.932 15.807 0 30.522 3.88 44.145 11.639 13.623 7.757 25.634 18.556 36.035 32.397 5.406 7.337 9.567 15.253 12.479 23.746a80.44 80.44 0 014.368 26.263zm-97.027 88.384c10.398 0 20.227-2.411 29.482-7.233 9.254-4.824 17.367-11.271 24.334-19.344 6.967-8.072 12.48-17.457 16.535-28.152 4.057-10.692 6.084-21.911 6.084-33.655 0-11.952-2.027-23.276-6.084-33.968-4.055-10.695-9.568-20.079-16.535-28.152-6.967-8.073-15.08-14.468-24.334-19.185-9.255-4.72-19.084-7.078-29.482-7.078s-20.228 2.358-29.482 7.078c-9.257 4.717-17.368 11.112-24.334 19.185-6.97 8.073-12.48 17.457-16.537 28.152-4.056 10.692-6.082 22.016-6.082 33.968 0 11.744 2.026 22.963 6.082 33.655 4.057 10.695 9.567 20.08 16.537 28.152 6.966 8.073 15.077 14.52 24.334 19.344 9.254 4.822 19.084 7.233 29.482 7.233zM987.869 119.252c2.066-.012 4.303.823 4.996 1.865.693 1.042-.419 1.898-2.484 1.91l-2.512-3.775zm-82.447 4.119l.762-3.464-1.637-.156h.079l.244-.002.411-.003.569-.003.732-.004.894-.005 1.058-.007 1.222-.007 1.382-.008 1.547-.01 1.708-.01 1.871-.011 2.034-.012 2.198-.014 2.36-.014 2.521-.015 2.686-.016 2.847-.017 3.011-.018 3.174-.019 3.336-.02 3.499-.021 3.662-.022 3.825-.023 3.986-.024 4.15-.025 4.313-.025 4.475-.027 4.638-.028 4.801-.029 4.963-.029 5.126-.031 2.512 3.775-5.126.031-4.964.03-4.801.028-4.637.028-4.476.027-4.313.026-4.15.025-3.987.024-3.824.022-3.662.022-3.498.021-3.337.02-3.173.019-3.011.019-2.848.016-2.685.016-2.523.016-2.36.014-2.195.013-2.035.012-1.872.011-1.709.011-1.546.009-1.384.008-1.219.007-1.058.007-.896.005-.732.005-.571.003-.403.002-.244.002h-.083l-1.637-.155zm1.637.155c-2.066.013-4.303-.822-4.996-1.865-.694-1.042.419-1.898 2.484-1.91l2.512 3.775zm-18.84-16.227l7.891 1.179-.002-.066.057.666.079.648.101.627.123.609.144.587.165.569.186.548.205.527.226.507.244.485.262.464.279.443.295.421.31.399.323.377.334.354.347.333.355.311.363.289.371.269.378.25.383.23.388.213.396.197.407.184.417.171.432.158.451.15.474.14.498.132.524.123.559.114-.762 3.464-1.028-.211-1.015-.237-.992-.262-.971-.288-.945-.313-.918-.338-.886-.362-.847-.382-.811-.403-.773-.423-.729-.439-.687-.455-.648-.469-.608-.485-.568-.496-.53-.509-.494-.522-.458-.535-.425-.547-.391-.559-.361-.572-.33-.584-.3-.599-.273-.611-.244-.625-.216-.64-.191-.653-.163-.668-.138-.682-.113-.698-.086-.712-.062-.727-.002-.066zm.002.066c-.067-1.002 1.643-1.579 3.821-1.29 2.178.289 3.999 1.336 4.066 2.337l-7.887-1.047zm.971-39.595l6.934 2.733.478-.777v.038l-.002.114-.002.188-.004.266-.004.34-.005.416-.007.493-.007.567-.008.643-.009.72-.01.794-.011.87-.013.947-.013 1.021-.013 1.097-.016 1.174-.016 1.249-.016 1.324-.019 1.4-.018 1.476-.02 1.552-.021 1.627-.021 1.703-.023 1.779-.024 1.854-.024 1.93-.026 2.006-.027 2.081-.027 2.158-.028 2.232-.03 2.309-.03 2.384-7.891-1.179.031-2.385.029-2.308.029-2.233.027-2.157.026-2.081.026-2.006.025-1.93.023-1.855.023-1.778.022-1.704.02-1.627.02-1.551.019-1.476.018-1.4.017-1.325.016-1.249.015-1.173.014-1.097.013-1.022.012-.946.011-.87.01-.795.01-.72.008-.642.007-.569.007-.491.005-.416.004-.34.003-.266.003-.19.001-.113.001-.038.478-.776zm-.478.776c.012-.99 1.789-1.528 3.968-1.203 2.178.326 3.934 1.393 3.922 2.383l-7.89-1.18zm81.817-57.024l6.934 2.733-.08.055-.238.164-.397.275-.556.385-.715.494-.874.604-1.032.714-1.192.825-1.35.933-1.509 1.043-1.668 1.154-1.827 1.264-1.986 1.373-2.145 1.483-2.303 1.592-2.463 1.703-2.621 1.813-2.78 1.923-2.939 2.032-3.098 2.142-3.256 2.252-3.416 2.362-3.575 2.472-3.733 2.582-3.892 2.691-4.051 2.802-4.21 2.91-4.369 3.023-4.528 3.13-4.687 3.241-4.845 3.35-5.004 3.462-6.934-2.733 5.005-3.461 4.845-3.35 4.686-3.242 4.528-3.13 4.369-3.022 4.21-2.911 4.051-2.801 3.892-2.692 3.734-2.582 3.574-2.471 3.415-2.363 3.257-2.252 3.098-2.142 2.939-2.032 2.78-1.923 2.622-1.813 2.462-1.702 2.304-1.593 2.144-1.483 1.986-1.373 1.826-1.264 1.669-1.153 1.509-1.045 1.35-.933 1.192-.824 1.033-.714.874-.605.714-.494.556-.384.397-.275.239-.165.079-.054zm0 0c1.04-.719 3.435-.69 5.35.064 1.914.755 2.623 1.95 1.584 2.669l-6.934-2.733z" fill="#321E19"/><path d="M977.483 8.71c-.748-1.04.305-1.918 2.351-1.958 2.046-.04 4.312.772 5.06 1.813l-7.411.146zm25.507 52.486l-7.893-1.117-.06-1.739-.092-1.73-.123-1.721-.155-1.713-.188-1.704-.218-1.696-.25-1.686-.283-1.679-.314-1.67-.346-1.661-.377-1.652-.409-1.644-.441-1.636-.472-1.627-.503-1.618-.536-1.61-.567-1.6-.598-1.593-.63-1.583-.662-1.575-.693-1.567-.724-1.558-.756-1.549-.788-1.541-.819-1.532-.85-1.523-.882-1.515-.913-1.507-.944-1.498-.976-1.489-1.007-1.48-1.038-1.472 7.411-.146 1.072 1.52 1.039 1.53 1.007 1.535.974 1.544.941 1.553.908 1.56.876 1.568.843 1.577.809 1.585.777 1.593.744 1.6.712 1.609.679 1.616.646 1.625.614 1.633.581 1.64.549 1.65.516 1.656.483 1.665.446 1.672.42 1.681.39 1.69.35 1.696.32 1.705.29 1.713.26 1.721.22 1.729.19 1.736.16 1.746.12 1.753.1 1.76.06 1.77zm0 0c.02.996-1.72 1.553-3.902 1.245-2.178-.308-3.966-1.366-3.991-2.362l7.893 1.117z" fill="#E7CA81"/><path d="M988.902 1.978c-.767-1.041.265-1.926 2.304-1.976 2.039-.05 4.315.754 5.082 1.796l-7.386.18zm29.958 72.236l-7.89-1.153v-.007l-.01-2.548-.05-2.527-.1-2.507-.14-2.484-.19-2.464-.23-2.444-.27-2.422-.32-2.4-.36-2.38-.41-2.359-.45-2.338-.49-2.316-.54-2.296-.58-2.274-.62-2.253-.67-2.232-.72-2.212-.75-2.19-.8-2.168-.85-2.148-.88-2.126-.94-2.104-.971-2.085-1.019-2.062-1.061-2.042-1.106-2.02-1.149-1.999-1.192-1.978-1.235-1.956-1.279-1.935-1.322-1.914-1.364-1.893 7.386-.18 1.407 1.95 1.361 1.972 1.314 1.992 1.27 2.011 1.23 2.031 1.17 2.052 1.14 2.072 1.09 2.092 1.04 2.111 1 2.133.95 2.152.91 2.172.86 2.193.81 2.212.78 2.232.72 2.253.68 2.273.64 2.293.59 2.313.55 2.334.5 2.354.46 2.374.41 2.393.37 2.415.32 2.435.27 2.454.24 2.475.19 2.496.14 2.515.1 2.537.05 2.555.01 2.577v-.007zm0 .007c-.01.991-1.78 1.533-3.95 1.212-2.18-.323-3.95-1.388-3.94-2.38l7.89 1.168zm.12 32.743l-7.89-1.153v-2.046l-.01-.544v-2.015l-.01-.8v-1.791l-.01-.991v-1.056l-.01-1.12v-1.182l-.01-1.248v-1.311l-.01-1.375v-1.44l-.01-1.503v-1.567l-.01-1.63-.01-1.696v-1.76l-.01-1.822-.01-1.887v-1.95l-.01-2.016 7.89 1.153.01 2.015v1.95l.01 1.888.01 1.823v1.759l.01 1.695.01 1.631v1.567l.01 1.504v1.439l.01 1.375v1.31l.01 1.248v1.184l.01 1.12v1.055l.01.991v1.791l.01.8v2.015l.01.544V106.964zm0 0c.01.993-1.76 1.539-3.93 1.221-2.18-.318-3.95-1.381-3.96-2.374l7.89 1.153z" fill="#321E19"/><path d="M895.228 73.148c-2.079-.009-4.293-.861-4.945-1.904-.651-1.042.506-1.88 2.585-1.872l2.36 3.776zm118.522-3.275l2.36 3.775h-.12l-.35-.002-.59-.002-.83-.003-1.06-.005-1.3-.005-1.54-.007-1.77-.007-2-.008-2.25-.01-2.47-.01-2.72-.01-2.951-.013-3.188-.013-3.423-.015-3.659-.014-3.896-.017-4.131-.017-4.368-.018-4.604-.02-4.84-.02-5.076-.02-5.312-.022-5.548-.023-5.785-.024-6.02-.025-6.256-.026-6.493-.027-6.729-.028-6.965-.028-7.201-.03-7.437-.031-2.36-3.776 7.437.031 7.201.03 6.965.029 6.728.028 6.493.027 6.256.026 6.021.024 5.785.025 5.547.023 5.313.022 5.076.02 4.84.02 4.604.02 4.367.018 4.132.017 3.896.016 3.659.015 3.424.014 3.187.014 2.951.012 2.715.011 2.475.01 2.25.01 2 .008 1.77.007 1.54.007 1.3.005 1.06.004.83.004.59.002.35.002h.12zm0 0c2.08.008 4.29.86 4.94 1.903.66 1.043-.5 1.88-2.58 1.872l-2.36-3.775zM900.645 82.372c-2.08-.01-4.293-.858-4.942-1.89-.648-1.03.513-1.858 2.593-1.847l2.349 3.737zm106.255-4.201l3.04 3.725-1.5.059-1.62.056-1.74.053-1.86.05-1.99.047-2.105.045-2.231.042-2.356.038-2.478.036-2.603.034-2.728.03-2.851.026-2.975.025-3.101.022-3.226.02-3.349.015-3.474.013-3.6.011-3.724.008-3.848.005-3.974.002h-4.099l-4.224-.004-4.348-.007-4.474-.008-4.599-.012-4.723-.015-4.849-.017-4.974-.02-5.099-.023-5.224-.026-5.349-.029-2.349-3.737 5.343.029 5.217.025 5.092.023 4.967.02 4.842.018 4.716.015 4.59.011 4.466.01 4.339.006 4.214.003h4.088l3.963-.002 3.838-.004 3.711-.008 3.587-.01 3.46-.014 3.335-.016 3.207-.019 3.083-.022 2.957-.024 2.832-.027 2.704-.03 2.577-.033 2.453-.035 2.324-.038 2.198-.041 2.071-.044 1.94-.046 1.82-.049 1.68-.052 1.56-.053 1.43-.057zm0 0c2.01-.085 4.32.68 5.16 1.708.84 1.029-.11 1.932-2.12 2.017l-3.04-3.725z" fill="#321E19"/><path d="M963.175 166.037c.154-3.291-2.061-6.09-4.82-7.173-2.765-1.086-6.08-.455-8.319.568-6.693 3.055-10.661 12.721-12.028 19.588-.672 3.382.639 6.324 3.606 6.794 3.623.573 21.156-11.126 21.561-19.777zm-13.131 51.762a21.344 21.344 0 01-10.013-.384c-8.915-2.799-14.265-8.765-16.051-17.902-1.488-7.614-.237-16.826 3.751-27.638 2.72-7.76 5.805-13.505 9.254-17.232 7.33-7.92 20.478-9.337 28.635-3.059 6.171 4.751 6.558 9.21 6.422 13.91-.344 11.805-14.588 22.885-26.572 27.411-3.005 1.134-5.059 2.759-6.211 4.473-5.897 8.776 11.821 19.956 46.623-19.654 8.042-8.804 13.142-14.827 15.298-18.067 1.62-2.43 3.18-3.796 4.69-4.096 1.17-.233 2.38.142 3.62 1.127.64.576 1.02 1.204 1.15 1.88.1.507-.04 1.327-.43 2.458-.39 1.132-2.08 3.402-5.08 6.81l-16.508 19.889a919.471 919.471 0 00-6.663 7.387c-2.288 2.564-4.391 4.74-6.308 6.527-10.191 9.406-18.727 14.793-25.607 16.16zm-173.95 122.107c-1.342.267-3.362-.034-6.06-.905-2.699-.87-4.732-2.575-6.1-5.116-2.238-3.422-4.166-9.278-5.787-17.569-2.149-10.997-2.427-25.793-.832-44.39l1.151-15.52c-1.341-.613-2.63-1.19-3.87-1.736a9.413 9.413 0 01-3.189-2.266c-.886-.966-1.362-1.619-1.429-1.957-.132-.677.038-1.149.508-1.419l2.567-.247 6.441-.489 5.635-35.392c3.925-23.63 7.69-44.502 11.295-62.618 7.472-32.244 12.881-53.18 16.229-62.808 1.96-5.136 4.115-7.936 6.465-8.403 1.342-.266 2.851-.127 4.527.42 3.252.583 5.127 2.144 5.622 4.682.794 4.06-1.303 16.078-6.29 36.051-4.519 20.582-7.578 34.812-9.178 42.687-4.533 25.86-8.018 48.17-10.452 66.934l-1.487 9.786c.504-.101 2.571-1.566 6.202-4.396 21.92-17.185 39.057-39.66 51.412-67.425 11.883-26.616 16.548-51.358 13.997-74.227l-.889-5.887c-1.918-9.813-5.413-16.985-10.482-21.514-5.07-4.53-12.89-5.744-23.463-3.643-10.237 2.034-20.702 7.364-31.393 15.991-17.483 14.02-31.958 32.055-43.425 54.106-11.468 22.051-17.836 44.1-19.106 66.147-.086 6.696-1.136 10.244-3.15 10.644-1.006.201-2.07-.116-3.192-.948-1.121-.831-1.897-2.347-2.327-4.546-.43-2.199-.348-7.577.247-16.132 2.652-24.782 11.266-48.946 25.841-72.494 14.573-23.547 32.025-41.296 52.353-53.243 5.846-3.095 11.873-5.259 18.083-6.492l6.293-1.251c3.692-.733 8.279-.458 13.76.826 5.481 1.283 10.867 3.86 16.155 7.731 5.289 3.87 9.421 8.059 12.394 12.566 3.539 5.624 6.219 13.09 8.037 22.394 1.521 7.783 2.054 15.411 1.597 22.884-2.94 31.341-15.317 61.22-37.134 89.633-14.343 18.492-29.508 31.437-45.496 38.831l-9.02 4.692-2.028 23.076c-1.818 26.374-1.752 44.552.199 54.535l.794 4.061c.496 2.537-.179 3.989-2.025 4.356zm104.573-93.805c-3.189.634-6.199.397-9.03-.71-2.831-1.107-4.907-2.585-6.227-4.431-1.32-1.847-2.343-4.631-3.071-8.354-1.059-5.414-.814-11.966.734-19.655 1.548-7.69 3.723-14.626 6.525-20.806 2.801-6.181 5.544-9.538 8.23-10.072 2.014-.4 4.443.435 7.289 2.507l4.47 2.803c-5.667 11.144-10.047 23.965-13.14 38.466-1.259 6.05-1.689 10.091-1.293 12.12.265 1.355.818 1.947 1.656 1.781 4.868-.967 14.047-8.415 27.537-22.345 7.941-8.431 15.207-15.851 21.799-22.258l.859-.962c2.489-2.427 4.482-4.274 5.977-5.537 1.498-1.264 2.749-1.996 3.755-2.195.504-.101 1.166-.057 1.988.132.821.188 1.533.486 2.136.894.603.407.937.78 1.003 1.118.165.845-2.074 3.664-6.716 8.453l-10.194 10.725-10.145 10.98c-14.706 16.631-26.087 25.747-34.142 27.346zm11.611-85.089c-1.343.266-2.785.025-4.325-.723-1.541-.749-2.444-1.799-2.709-3.154-.364-1.861.365-4.378 2.185-7.552l.354-.86c1.417-2.567 2.712-3.967 3.887-4.201a7.637 7.637 0 012.466-.094c.804.104 2.865 1.056 6.18 2.858l-1.879 6.438c-1.421 4.324-3.474 6.754-6.159 7.288z" fill="url(#paint0_linear_8579_13)"/><defs><linearGradient id="paint0_linear_8579_13" x1="765.648" y1="304.342" x2="962.527" y2="91.176" gradientUnits="userSpaceOnUse"><stop stop-color="#C49E55"/><stop offset=".49" stop-color="#F0D68D"/><stop offset="1" stop-color="#C49E55"/></linearGradient></defs></svg>