<svg width="100" height="34" fill="none" xmlns="http://www.w3.org/2000/svg"><path d="M18.782 20.544c-.164.66-.4 1.298-.71 1.913a10.17 10.17 0 01-1.092 1.72 9.529 9.529 0 01-3.262 2.56 9.21 9.21 0 01-4.027.908 8.894 8.894 0 01-3.535-.743 10.642 10.642 0 01-3.112-2.037 10.398 10.398 0 01-2.211-3A8.237 8.237 0 010 18.205v-.055c0-.734.105-1.464.31-2.188.204-.725.5-1.418.873-2.078.378-.66.837-1.284 1.37-1.872a11.303 11.303 0 011.815-1.596 9.226 9.226 0 012.43-1.142 10.204 10.204 0 012.675-.44 9.828 9.828 0 012.689.289c.882.22 1.697.56 2.443 1.018.018 0 .027.009.027.027.073.037.164.092.273.165.8.55 1.492 1.184 2.075 1.9a.423.423 0 01.054.165c.037.146 0 .257-.109.33-.164.128-.31.12-.437-.028a8.494 8.494 0 00-3.03-2.408 8.701 8.701 0 00-3.767-.84c-.418 0-.819.028-1.201.083a6.919 6.919 0 00-2.58 1.019 8.092 8.092 0 00-2.06 1.926 9.407 9.407 0 00-1.38 2.615 9.439 9.439 0 00-.505 3.11v.192a9.228 9.228 0 00.656 3.344A8.99 8.99 0 004.3 24.452c.7.77 1.515 1.376 2.443 1.817.928.44 1.91.66 2.948.66a6.72 6.72 0 002.511-.468 7.266 7.266 0 002.116-1.293 8.827 8.827 0 001.652-1.954 10.19 10.19 0 001.12-2.477h-3.85c-.2 0-.3-.11-.3-.33 0-.202.1-.303.3-.303h5.241c.091 0 .169.027.232.082a.276.276 0 01.096.22l-.027.138zM73.037 18.223a8.55 8.55 0 01-.757 3.55 10.019 10.019 0 01-2.034 2.97 10.155 10.155 0 01-2.946 2.064 9.207 9.207 0 01-3.492.863h-3.339c-.224 0-.336-.104-.336-.311 0-.208.112-.311.336-.311h1.235V9.456H60.44c-.205 0-.308-.113-.308-.34 0-.188.103-.282.308-.282h3.142c1.123 0 2.25.25 3.38.75a10.55 10.55 0 015.232 5.034 8.067 8.067 0 01.842 3.605zm-8.808 8.768a8.25 8.25 0 003.057-.933 8.783 8.783 0 002.47-1.938 9.11 9.11 0 001.64-2.687 8.59 8.59 0 00.603-3.21 8.591 8.591 0 00-.603-3.21 8.92 8.92 0 00-1.64-2.672 8.693 8.693 0 00-2.47-1.91 8.407 8.407 0 00-3.057-.919v17.479zM59.897 18.265c0 1.53-.416 2.977-1.247 4.34a14.378 14.378 0 01-2.31 2.705 8.957 8.957 0 01-3.088 1.825 9.21 9.21 0 01-3.057.534 9.087 9.087 0 01-3.182-.566 9.574 9.574 0 01-2.45-1.352 11.169 11.169 0 01-2.09-2.06 10.286 10.286 0 01-1.466-2.564 7.735 7.735 0 01-.546-2.862c0-1.531.416-2.978 1.248-4.341.457-.713.982-1.379 1.575-1.997a10.311 10.311 0 011.966-1.604 9.997 9.997 0 012.324-1.07 8.673 8.673 0 012.62-.393c1.581 0 3.053.388 4.415 1.164 1.362.776 2.564 1.856 3.604 3.24.54.733.956 1.525 1.248 2.374.29.85.436 1.725.436 2.627zm-9.702 8.838c1.04 0 2.023-.241 2.948-.723a8.197 8.197 0 002.433-1.935 9.326 9.326 0 001.654-2.815 9.405 9.405 0 00.608-3.365 9.491 9.491 0 00-.608-3.397 9.324 9.324 0 00-1.654-2.815 7.975 7.975 0 00-2.433-1.919 6.4 6.4 0 00-2.948-.708 6.4 6.4 0 00-2.949.708 7.974 7.974 0 00-2.433 1.919 9.324 9.324 0 00-1.654 2.815 9.498 9.498 0 00-.608 3.397c0 1.174.203 2.296.608 3.365a9.326 9.326 0 001.654 2.815 8.196 8.196 0 002.433 1.935 6.292 6.292 0 002.949.723zM39.007 18.205c0 1.53-.416 2.978-1.248 4.34a14.378 14.378 0 01-2.309 2.706c-.873.796-1.903 1.405-3.089 1.824a9.21 9.21 0 01-3.057.535 9.085 9.085 0 01-3.182-.567 9.574 9.574 0 01-2.45-1.352 11.165 11.165 0 01-2.09-2.06 10.283 10.283 0 01-1.466-2.564 7.735 7.735 0 01-.546-2.862c0-1.53.416-2.977 1.248-4.34.458-.713.983-1.38 1.576-1.998a10.31 10.31 0 011.965-1.604 9.996 9.996 0 012.325-1.07 8.672 8.672 0 012.62-.393c1.58 0 3.052.388 4.415 1.164 1.362.776 2.563 1.856 3.603 3.24.54.734.957 1.525 1.248 2.375.291.849.437 1.724.437 2.626zm-9.703 8.838c1.04 0 2.023-.24 2.948-.723a8.194 8.194 0 002.434-1.934 9.325 9.325 0 001.653-2.816 9.405 9.405 0 00.609-3.365 9.492 9.492 0 00-.609-3.397 9.324 9.324 0 00-1.653-2.815 7.975 7.975 0 00-2.434-1.918 6.401 6.401 0 00-2.948-.708 6.4 6.4 0 00-2.948.707 7.971 7.971 0 00-2.434 1.919 9.322 9.322 0 00-1.653 2.815 9.496 9.496 0 00-.608 3.397 9.41 9.41 0 00.608 3.366 9.323 9.323 0 001.654 2.815 8.19 8.19 0 002.433 1.934 6.291 6.291 0 002.948.723zM96.887 11.925c.207-.001.43.082.5.187.069.104-.042.19-.249.19l-.251-.377zm-8.245.412l.076-.346-.163-.016h.13l.073-.001h.09l.105-.001.123-.001h.138l.154-.002h.171l.187-.002.204-.001.22-.002h.236l.252-.002.268-.002.285-.002.301-.002.317-.001.334-.002.35-.003.366-.002.383-.002.398-.002.415-.003.432-.002.447-.003.464-.003.48-.003.496-.003.513-.003.251.378-.513.003-.496.003-.48.003-.464.002-.447.003-.432.003-.415.002-.398.003-.383.002-.366.002-.35.002-.333.002-.318.002-.3.002-.286.002-.268.001-.252.002-.236.001-.22.001-.203.002h-.188l-.17.002h-.155l-.139.002H89.1l-.09.001h-.073l-.057.001H88.806l-.164-.015zm.164.016c-.207 0-.43-.083-.5-.187s.042-.19.249-.19l.25.377zm-1.884-1.623l.789.118v-.007l.005.067.008.065.01.062.013.061.014.059.017.057.018.055.02.052.023.051.025.049.026.046.028.044.03.042.03.04.033.038.033.035.035.034.035.03.037.03.037.027.037.024.039.024.039.02.04.02.04.019.042.017.043.016.045.015.047.014.05.013.052.012.056.012-.076.346-.103-.021-.101-.024-.1-.026-.096-.029-.095-.031-.092-.034-.088-.036-.085-.038-.081-.04-.077-.043-.073-.044-.069-.045-.065-.047-.06-.049-.057-.05-.053-.05-.05-.052-.046-.054-.042-.055-.04-.055-.035-.058-.033-.058-.03-.06-.028-.061-.024-.063-.022-.064-.019-.065-.016-.067-.014-.068-.011-.07-.009-.07-.006-.074v-.006zm0 .006c-.007-.1.164-.157.382-.129.218.03.4.134.407.234l-.789-.104zm.097-3.959l.694.273.047-.077v.094l-.001.042-.001.05v.056l-.001.064-.001.072-.001.08-.001.087-.002.094-.001.102-.001.11-.002.117-.002.125-.001.133-.002.14-.002.147-.002.155-.002.163-.002.17-.002.178-.003.186-.002.193-.003.2-.002.209-.003.215-.003.224-.003.23-.003.239-.79-.118.004-.239.003-.23.003-.224.002-.215.003-.209.003-.2.002-.193.002-.186.003-.177.002-.17.002-.163.002-.156.002-.147.002-.14.001-.133.002-.125.001-.117.002-.11.001-.102.001-.094.002-.087v-.08l.002-.072v-.064l.001-.057v-.05l.001-.04v-.061l.001-.02v-.014l.048-.078zm-.048.078c.002-.1.18-.153.397-.12.218.032.394.139.392.238l-.789-.118zm8.182-5.703l.694.273-.008.006-.024.016-.04.028-.056.038-.071.05-.087.06-.104.072-.119.082-.135.093-.15.105-.168.115-.182.126-.199.138-.214.148-.23.16-.247.17-.262.18-.278.193-.294.203-.31.215-.325.225-.342.236-.358.247-.373.258-.389.27-.405.28-.421.29-.437.303-.453.313-.468.324-.485.335-.5.346-.694-.273.5-.346.485-.335.469-.324.453-.313.436-.302.422-.292.405-.28.389-.269.373-.258.358-.247.341-.236.326-.226.31-.214.293-.203.279-.192.262-.182.246-.17.23-.16.215-.148.198-.137.183-.126.167-.116.15-.104.136-.093.119-.083.103-.071.088-.06.071-.05.056-.038.04-.028.023-.016.008-.006zm0 0c.104-.072.344-.069.535.007.191.075.262.195.159.266l-.694-.273z" fill="#321E19"/><path d="M95.848.871c-.075-.104.03-.192.235-.196.205-.004.432.077.506.182l-.74.014zm2.55 5.249l-.788-.112-.006-.174-.01-.173-.012-.172-.015-.171-.02-.17-.02-.17-.026-.169-.028-.168-.032-.167-.034-.166-.038-.165-.04-.165-.045-.163-.047-.163-.05-.162-.054-.16-.057-.16-.06-.16-.063-.158-.066-.158-.069-.156-.072-.156-.076-.155-.079-.154-.082-.153-.085-.153-.088-.151-.091-.151-.095-.15-.097-.149-.1-.148-.105-.147.741-.014.108.152.103.152.101.154.098.154.094.156.09.156.088.157.084.157.081.159.078.159.074.16.072.16.068.163.064.162.061.163.059.164.054.165.052.166.048.166.045.168.042.168.039.169.035.17.032.17.029.171.026.172.022.173.019.174.016.174.012.176.01.176.006.177zm0 0c.003.1-.171.155-.39.124-.217-.03-.396-.137-.398-.236l.789.112z" fill="#E7CA81"/><path d="M96.99.198c-.076-.104.027-.193.23-.198.204-.005.432.076.509.18l-.739.018zm2.996 7.223l-.79-.115V7.05l-.005-.253-.01-.25-.014-.25-.019-.246-.023-.244-.027-.242-.032-.24-.036-.238-.04-.236-.046-.234-.049-.232-.054-.23-.058-.227-.062-.225-.067-.223-.072-.221-.075-.22-.08-.216-.085-.215-.088-.212-.094-.21-.097-.21-.102-.206-.106-.204-.11-.202-.116-.2-.119-.197-.123-.196-.128-.194-.132-.19-.137-.19.739-.018.14.195.137.197.131.2.127.2.123.203.117.206.114.207.109.209.104.211.1.213.095.216.09.217.087.22.081.22.078.224.072.225.068.227.064.23.06.23.054.234.05.235.046.238.04.24.037.24.033.244.028.246.023.247.019.25.014.251.01.254.005.255v.258zm0 .001c0 .1-.178.153-.395.121-.218-.032-.395-.138-.394-.238l.789.117zm.012 3.274l-.789-.115v-.319l-.001-.068v-.153l-.001-.087v-.192l-.001-.105v-.112l-.001-.118v-.125l-.001-.131v-.138l-.001-.144v-.15l-.001-.157V8.42l-.001-.17-.001-.175V7.89l-.002-.188v-.195l-.001-.202.789.115v.202l.001.195.001.189v.182l.002.176v.333l.001.156v.15l.001.144.001.138v.131l.001.125V9.772l.001.106v.192l.001.086v.153l.001.068v.204l.001.036v.079zm0 0c0 .1-.176.154-.394.123-.217-.032-.394-.139-.395-.238l.79.115z" fill="#321E19"/><path d="M87.622 7.315c-.208-.001-.43-.086-.495-.19-.065-.105.051-.189.259-.188l.236.378zm11.852-.328l.236.378h-.189l-.106-.001h-.13l-.153-.002h-.177l-.201-.001-.224-.001-.248-.001-.272-.001-.295-.001-.319-.002-.342-.001-.366-.002-.39-.001-.413-.002-.436-.002-.46-.002-.485-.002-.507-.002-.532-.002-.554-.002-.579-.003-.602-.002-.626-.003-.649-.002-.673-.003-.696-.003-.72-.003-.744-.003-.236-.378.744.003.72.003.696.003.673.003.65.003.625.002.602.003.579.002.554.002.532.003.507.002.484.002.46.002.437.001.413.002.39.002.366.001.342.002.32.001.294.001.272.001.248.001.224.001.2.001h.178l.153.002h.319l.059.001h.047zm0 0c.208.001.43.086.495.19.065.105-.051.189-.259.188l-.236-.378zM88.165 8.237c-.209 0-.43-.086-.495-.189-.064-.103.052-.186.26-.184l.234.373zm10.625-.42l.304.373-.15.005-.162.006-.174.005-.186.005-.199.005-.21.005-.224.004-.235.004-.248.003-.26.004-.273.003-.285.002-.298.003-.31.002-.322.002-.335.001-.348.002h-.36l-.372.002h-2.049l-.448-.002h-.46l-.472-.002-.485-.002-.497-.002-.51-.002-.523-.003-.534-.003-.235-.373.534.002.522.003.509.002.496.002.485.002.471.001.46.002h.446l.434.001H94.268l.359-.002.346-.001.333-.002.321-.002.308-.002.296-.002.283-.003.27-.003.258-.003.246-.004.232-.004.22-.004.207-.004.194-.005.182-.005.169-.005.155-.005.143-.006zm0 0c.2-.008.432.068.516.17.084.104-.01.194-.212.203l-.304-.373z" fill="#321E19"/><path d="M94.416 16.604a.75.75 0 00-.482-.718c-.277-.108-.608-.045-.832.057-.67.306-1.066 1.272-1.203 1.959-.067.338.064.632.36.68.363.057 2.116-1.113 2.157-1.978zm-1.313 5.176c-.336.067-.67.054-1.001-.039-.892-.28-1.427-.876-1.606-1.79-.148-.761-.023-1.682.376-2.764.272-.776.58-1.35.925-1.723.733-.792 2.048-.933 2.863-.306.618.476.656.921.643 1.391-.035 1.18-1.46 2.289-2.658 2.742-.3.113-.505.275-.62.447-.59.877 1.181 1.995 4.662-1.966.804-.88 1.314-1.482 1.53-1.806.161-.243.317-.38.469-.41.117-.023.238.014.361.113.064.057.102.12.116.188a.541.541 0 01-.044.246c-.039.113-.208.34-.507.68l-1.651 1.99c-.216.236-.438.482-.667.738-.228.257-.439.474-.63.653-1.02.94-1.873 1.48-2.561 1.616zM75.708 33.99c-.134.027-.336-.003-.606-.09a1.03 1.03 0 01-.61-.511c-.224-.343-.417-.928-.579-1.757-.215-1.1-.242-2.58-.083-4.44l.115-1.551c-.134-.062-.263-.12-.387-.174a.94.94 0 01-.319-.227c-.088-.096-.136-.162-.143-.195-.013-.068.004-.115.051-.142l.257-.025.644-.049.563-3.54c.393-2.362.77-4.45 1.13-6.26.747-3.225 1.288-5.319 1.623-6.282.196-.513.411-.793.646-.84a.896.896 0 01.453.042c.325.058.513.215.562.468.08.406-.13 1.608-.629 3.605a326.83 326.83 0 00-.918 4.27 155.105 155.105 0 00-1.045 6.692l-.149.98c.05-.011.257-.157.62-.44 2.193-1.719 3.906-3.966 5.142-6.743 1.188-2.662 1.655-5.136 1.4-7.423l-.09-.588c-.191-.982-.54-1.699-1.048-2.152-.507-.453-1.289-.574-2.346-.364-1.023.203-2.07.736-3.14 1.599-1.748 1.402-3.195 3.205-4.342 5.41-1.146 2.206-1.783 4.41-1.91 6.615-.009.67-.114 1.025-.315 1.065-.1.02-.207-.012-.32-.095-.112-.083-.19-.235-.232-.455-.043-.22-.035-.757.025-1.613.265-2.478 1.126-4.895 2.584-7.25 1.457-2.354 3.202-4.129 5.235-5.324a6.597 6.597 0 011.808-.649l.63-.125c.369-.073.827-.046 1.376.083.548.128 1.086.386 1.615.773.529.387.942.806 1.24 1.256.353.563.621 1.31.803 2.24.152.778.206 1.54.16 2.288-.294 3.134-1.532 6.122-3.714 8.963-1.434 1.85-2.95 3.144-4.55 3.884l-.901.469-.203 2.307c-.182 2.638-.175 4.456.02 5.454l.08.406c.049.254-.019.399-.203.436zm10.457-9.38c-.319.064-.62.04-.903-.07-.283-.112-.49-.26-.623-.444-.132-.185-.234-.463-.307-.835-.105-.542-.081-1.197.074-1.966a9.641 9.641 0 01.652-2.08c.28-.619.555-.954.823-1.008.202-.04.445.044.73.251l.446.28c-.567 1.115-1.005 2.397-1.314 3.847-.126.605-.169 1.009-.13 1.212.027.135.083.195.166.178.487-.097 1.405-.841 2.754-2.235a71.166 71.166 0 012.18-2.225l.086-.096c.249-.243.448-.428.598-.554.15-.127.275-.2.375-.22a.492.492 0 01.199.014.626.626 0 01.213.089c.06.04.094.078.1.112.017.084-.207.366-.67.845l-1.02 1.073-1.015 1.098c-1.47 1.662-2.608 2.574-3.414 2.734zm1.161-8.509a.677.677 0 01-.432-.072c-.154-.075-.245-.18-.271-.316-.037-.186.036-.437.218-.755l.036-.086c.141-.256.27-.396.388-.42a.76.76 0 01.247-.01c.08.011.287.106.618.287l-.188.643c-.142.433-.347.676-.616.73z" fill="url(#paint0_linear_8066_191)"/><defs><linearGradient id="paint0_linear_8066_191" x1="74.663" y1="30.434" x2="94.351" y2="9.118" gradientUnits="userSpaceOnUse"><stop stop-color="#C49E55"/><stop offset=".49" stop-color="#F0D68D"/><stop offset="1" stop-color="#C49E55"/></linearGradient></defs></svg>