<svg width="100" height="34" viewBox="0 0 100 34" fill="none" xmlns="http://www.w3.org/2000/svg">
<path d="M18.7816 20.5441C18.6178 21.2047 18.3813 21.8422 18.0718 22.4569C17.7624 23.0715 17.3984 23.6449 16.9798 24.177C16.0699 25.2778 14.9825 26.131 13.7176 26.7366C12.4527 27.342 11.1106 27.6448 9.6911 27.6448C8.48992 27.6448 7.31149 27.3971 6.15591 26.9017C5.00018 26.4063 3.96287 25.7274 3.04378 24.865C2.12926 24.0026 1.39227 23.0027 0.83256 21.8651C0.277521 20.7276 0 19.5074 0 18.2047V18.1773V18.1497C0 17.4158 0.104609 16.6864 0.309359 15.9617C0.51411 15.2369 0.809911 14.5443 1.1829 13.8838C1.56056 13.2232 2.02013 12.5995 2.55242 12.0123C3.08928 11.4252 3.69444 10.893 4.3678 10.416C5.11393 9.92062 5.92384 9.53987 6.79738 9.27385C7.67097 9.00784 8.56269 8.86105 9.47269 8.83351C10.3826 8.80597 11.279 8.90232 12.1616 9.12252C13.0443 9.34271 13.8587 9.68209 14.6049 10.1408C14.623 10.1408 14.6322 10.15 14.6322 10.1683C14.7049 10.205 14.7959 10.2601 14.9052 10.3334C15.7059 10.8839 16.3974 11.5169 16.9798 12.2325C17.0163 12.3059 17.0344 12.3609 17.0344 12.3976C17.0709 12.5444 17.0344 12.6545 16.9253 12.7278C16.7614 12.8563 16.6158 12.8471 16.4885 12.7003C15.6513 11.6545 14.6413 10.8518 13.4583 10.2921C12.2754 9.73252 11.0196 9.45273 9.6911 9.45273C9.27251 9.45273 8.87205 9.48028 8.48992 9.53531C7.56174 9.70042 6.70181 10.0399 5.91018 10.5536C5.11855 11.0674 4.43148 11.7096 3.84907 12.4801C3.26671 13.2508 2.80724 14.1223 2.47056 15.0948C2.13388 16.0672 1.96549 17.1038 1.96549 18.2047V18.3974C1.98367 19.59 2.20208 20.7047 2.62067 21.7413C3.03926 22.778 3.59887 23.6816 4.2995 24.4522C5.00018 25.2229 5.81461 25.8283 6.74279 26.2687C7.67097 26.709 8.65369 26.9292 9.6911 26.9292C10.5828 26.9292 11.42 26.7732 12.2025 26.4613C12.9851 26.1494 13.6903 25.7182 14.3182 25.1678C14.9462 24.6173 15.4966 23.966 15.9698 23.2138C16.4429 22.4614 16.8161 21.6358 17.0891 20.7368H13.2399C13.0398 20.7368 12.9396 20.6266 12.9396 20.4065C12.9396 20.2047 13.0398 20.1038 13.2399 20.1038H18.4812C18.5723 20.1038 18.6496 20.1313 18.7133 20.1863C18.7771 20.2413 18.8089 20.3147 18.8089 20.4065L18.7816 20.5441Z" fill="#321E19"/>
<path d="M73.0373 18.2234C73.0373 19.4679 72.7849 20.6511 72.2799 21.7729C71.7749 22.8948 71.097 23.8846 70.246 24.7426C69.395 25.6004 68.4132 26.2887 67.3004 26.8072C66.1877 27.3257 65.0234 27.6132 63.8079 27.6698H60.4695C60.2451 27.6698 60.1328 27.5661 60.1328 27.3587C60.1328 27.1513 60.2451 27.0476 60.4695 27.0476H61.7039V9.4559H60.4414C60.2357 9.4559 60.1328 9.3428 60.1328 9.11647C60.1328 8.92796 60.2357 8.83371 60.4414 8.83371H63.5834C64.7056 8.83371 65.8323 9.08355 66.9638 9.58317C68.0953 10.0829 69.1098 10.7616 70.0075 11.6195C70.9053 12.4774 71.6346 13.4767 72.1958 14.6175C72.7568 15.7582 73.0373 16.9602 73.0373 18.2234ZM64.2286 26.991C65.3134 26.8778 66.3326 26.5668 67.2864 26.0577C68.2403 25.5486 69.0631 24.9028 69.7551 24.1203C70.4471 23.3379 70.9941 22.4422 71.3962 21.4335C71.7982 20.4247 71.9993 19.3548 71.9993 18.2234C71.9993 17.0922 71.7982 16.0221 71.3962 15.0133C70.9941 14.0046 70.4471 13.1137 69.7551 12.3407C69.0631 11.5677 68.2403 10.9312 67.2864 10.4316C66.3326 9.93193 65.3134 9.62557 64.2286 9.51247V26.991Z" fill="#321E19"/>
<path d="M59.8974 18.2646C59.8974 19.7953 59.4813 21.2424 58.6495 22.6051C57.9839 23.6117 57.2143 24.5134 56.3408 25.3102C55.4671 26.107 54.4377 26.7152 53.2521 27.1345C52.233 27.4909 51.2138 27.6691 50.1947 27.6691C49.0922 27.6691 48.0317 27.4804 47.0126 27.1029C46.1598 26.7885 45.3433 26.3377 44.5633 25.7506C43.7836 25.1633 43.0866 24.4766 42.473 23.6905C41.8595 22.9041 41.3708 22.0496 41.0067 21.127C40.6428 20.2042 40.4609 19.2503 40.4609 18.2646C40.4609 16.7338 40.8768 15.287 41.7088 13.924C42.1664 13.2112 42.6915 12.5454 43.2844 11.9268C43.877 11.3082 44.5323 10.7736 45.2497 10.3227C45.9673 9.87184 46.7421 9.51546 47.5741 9.25323C48.4059 8.99126 49.2796 8.86005 50.1947 8.86005C51.7754 8.86005 53.2469 9.24801 54.6092 10.0239C55.9715 10.7997 57.1726 11.8796 58.2127 13.2637C58.7533 13.9974 59.1695 14.789 59.4606 15.6382C59.7517 16.4875 59.8974 17.3628 59.8974 18.2646ZM50.1947 27.1029C51.2345 27.1029 52.2175 26.8618 53.1429 26.3797C54.0683 25.8972 54.8797 25.2525 55.5763 24.4453C56.273 23.638 56.8243 22.6995 57.2298 21.6301C57.6356 20.5608 57.8382 19.4389 57.8382 18.2646C57.8382 17.0693 57.6356 15.937 57.2298 14.8678C56.8243 13.7983 56.273 12.8598 55.5763 12.0526C54.8797 11.2453 54.0683 10.6058 53.1429 10.1341C52.2175 9.66209 51.2345 9.42623 50.1947 9.42623C49.1548 9.42623 48.172 9.66209 47.2465 10.1341C46.3208 10.6058 45.5098 11.2453 44.813 12.0526C44.1161 12.8598 43.5651 13.7983 43.1594 14.8678C42.7539 15.937 42.5512 17.0693 42.5512 18.2646C42.5512 19.4389 42.7539 20.5608 43.1594 21.6301C43.5651 22.6995 44.1161 23.638 44.813 24.4453C45.5098 25.2525 46.3208 25.8972 47.2465 26.3797C48.172 26.8618 49.1548 27.1029 50.1947 27.1029Z" fill="#321E19"/>
<path d="M39.0068 18.205C39.0068 19.7358 38.5907 21.1828 37.7589 22.5455C37.0933 23.5521 36.3237 24.4538 35.4502 25.2506C34.5765 26.0475 33.547 26.6556 32.3615 27.0749C31.3424 27.4313 30.3233 27.6095 29.3041 27.6095C28.2016 27.6095 27.1411 27.4209 26.122 27.0433C25.2692 26.7289 24.4527 26.2781 23.6727 25.691C22.893 25.1038 22.196 24.417 21.5824 23.6309C20.9688 22.8445 20.4802 21.99 20.1161 21.0674C19.7522 20.1446 19.5703 19.1907 19.5703 18.205C19.5703 16.6742 19.9862 15.2275 20.8182 13.8645C21.2758 13.1517 21.8008 12.4859 22.3938 11.8672C22.9864 11.2486 23.6417 10.714 24.359 10.2632C25.0767 9.81227 25.8515 9.4559 26.6836 9.19367C27.5153 8.9317 28.389 8.80048 29.3041 8.80048C30.8848 8.80048 32.3563 9.18845 33.7186 9.96438C35.0809 10.7401 36.282 11.82 37.3221 13.2041C37.8627 13.9378 38.2789 14.7294 38.57 15.5787C38.8612 16.4279 39.0068 17.3033 39.0068 18.205ZM29.3041 27.0433C30.3439 27.0433 31.3268 26.8023 32.2523 26.3201C33.1778 25.8377 33.989 25.193 34.6857 24.3857C35.3824 23.5785 35.9337 22.6399 36.3392 21.5705C36.745 20.5013 36.9476 19.3793 36.9476 18.205C36.9476 17.0098 36.745 15.8774 36.3392 14.8082C35.9337 13.7387 35.3824 12.8002 34.6857 11.993C33.989 11.1857 33.1778 10.5462 32.2523 10.0745C31.3268 9.60252 30.3439 9.36666 29.3041 9.36666C28.2643 9.36666 27.2813 9.60252 26.3559 10.0745C25.4302 10.5462 24.6191 11.1857 23.9225 11.993C23.2255 12.8002 22.6745 13.7387 22.2688 14.8082C21.8632 15.8774 21.6606 17.0098 21.6606 18.205C21.6606 19.3793 21.8632 20.5013 22.2688 21.5705C22.6745 22.6399 23.2255 23.5785 23.9225 24.3857C24.6191 25.193 25.4302 25.8377 26.3559 26.3201C27.2813 26.8023 28.2643 27.0433 29.3041 27.0433Z" fill="#321E19"/>
<path d="M96.8869 11.9252C97.0935 11.924 97.3172 12.0075 97.3865 12.1117C97.4558 12.2159 97.3446 12.3015 97.1381 12.3027L96.8869 11.9252ZM88.6422 12.3371L88.7184 11.9907L88.5547 11.9751L88.5626 11.9751L88.587 11.9749L88.6281 11.9746L88.685 11.9743L88.7582 11.9739L88.8476 11.9734L88.9534 11.9727L89.0756 11.972L89.2138 11.9712L89.3685 11.9702L89.5393 11.9692L89.7264 11.9681L89.9298 11.9669L90.1496 11.9655L90.3856 11.9641L90.6377 11.9626L90.9063 11.961L91.191 11.9593L91.4921 11.9575L91.8095 11.9556L92.1431 11.9536L92.493 11.9515L92.8592 11.9493L93.2417 11.947L93.6403 11.9446L94.0553 11.9421L94.4866 11.9396L94.9341 11.9369L95.3979 11.9341L95.878 11.9312L96.3743 11.9283L96.8869 11.9252L97.1381 12.3027L96.6255 12.3058L96.1291 12.3088L95.649 12.3116L95.1853 12.3144L94.7377 12.3171L94.3064 12.3197L93.8914 12.3222L93.4927 12.3246L93.1103 12.3268L92.7441 12.329L92.3943 12.3311L92.0606 12.3331L91.7433 12.335L91.4422 12.3369L91.1574 12.3385L90.8889 12.3401L90.6366 12.3417L90.4006 12.3431L90.1811 12.3444L89.9776 12.3456L89.7904 12.3467L89.6195 12.3478L89.4649 12.3487L89.3265 12.3495L89.2046 12.3502L89.0988 12.3509L89.0092 12.3514L88.936 12.3519L88.8789 12.3522L88.8386 12.3524L88.8142 12.3526L88.8059 12.3526L88.6422 12.3371ZM88.8059 12.3526C88.5993 12.3539 88.3756 12.2704 88.3063 12.1661C88.2369 12.0619 88.3482 11.9763 88.5547 11.9751L88.8059 12.3526ZM86.9219 10.7299L87.711 10.8478L87.7108 10.8412L87.7165 10.9078L87.7244 10.9726L87.7345 11.0353L87.7468 11.0962L87.7612 11.1549L87.7777 11.2118L87.7963 11.2666L87.8168 11.3193L87.8394 11.37L87.8638 11.4185L87.89 11.4649L87.9179 11.5092L87.9474 11.5513L87.9784 11.5912L88.0107 11.6289L88.0441 11.6643L88.0788 11.6976L88.1143 11.7287L88.1506 11.7576L88.1877 11.7845L88.2255 11.8095L88.2638 11.8325L88.3026 11.8538L88.3422 11.8735L88.3829 11.8919L88.4246 11.909L88.4678 11.9248L88.5129 11.9398L88.5603 11.9538L88.6101 11.967L88.6625 11.9793L88.7184 11.9907L88.6422 12.3371L88.5394 12.316L88.4379 12.2923L88.3387 12.2661L88.2416 12.2373L88.1471 12.206L88.0553 12.1722L87.9667 12.136L87.882 12.0978L87.8009 12.0575L87.7236 12.0152L87.6507 11.9713L87.582 11.9258L87.5172 11.8789L87.4564 11.8304L87.3996 11.7808L87.3466 11.7299L87.2972 11.6777L87.2514 11.6242L87.2089 11.5695L87.1698 11.5136L87.1337 11.4564L87.1007 11.398L87.0707 11.3381L87.0434 11.277L87.019 11.2145L86.9974 11.1505L86.9783 11.0852L86.962 11.0184L86.9482 10.9502L86.9369 10.8804L86.9283 10.8092L86.9221 10.7365L86.9219 10.7299ZM86.9221 10.7365C86.9154 10.6363 87.0864 10.5786 87.3042 10.6075C87.522 10.6364 87.7041 10.7411 87.7108 10.8412L86.9221 10.7365ZM87.0192 6.77698L87.7126 7.05026L87.7604 6.9726L87.7604 6.97644L87.7602 6.9878L87.76 7.00659L87.7596 7.03317L87.7592 7.06721L87.7587 7.10883L87.758 7.15808L87.7573 7.21481L87.7565 7.27911L87.7556 7.35104L87.7546 7.4305L87.7535 7.51753L87.7522 7.61215L87.7509 7.71433L87.7496 7.82405L87.748 7.94139L87.7464 8.06626L87.7448 8.1987L87.7429 8.33873L87.7411 8.48632L87.7391 8.6415L87.737 8.8042L87.7349 8.97453L87.7326 9.15239L87.7302 9.33782L87.7278 9.53083L87.7252 9.73142L87.7225 9.93953L87.7198 10.1553L87.717 10.3785L87.714 10.6094L87.711 10.8478L86.9219 10.7299L86.925 10.4914L86.9279 10.2606L86.9308 10.0373L86.9335 9.82158L86.9361 9.61347L86.9387 9.41288L86.9412 9.21986L86.9435 9.03443L86.9458 8.85657L86.948 8.68625L86.95 8.52354L86.952 8.36837L86.9539 8.22077L86.9557 8.08074L86.9574 7.9483L86.959 7.82343L86.9605 7.70609L86.9619 7.59638L86.9632 7.49419L86.9644 7.39958L86.9655 7.31254L86.9665 7.23309L86.9675 7.16116L86.9683 7.09685L86.969 7.04003L86.9697 6.99087L86.9702 6.94925L86.9706 6.91521L86.9709 6.88874L86.9712 6.86974L86.9713 6.85838L86.9714 6.85464L87.0192 6.77698ZM86.9714 6.85464C86.9726 6.75563 87.1503 6.70177 87.3682 6.73433C87.586 6.76689 87.7616 6.87359 87.7604 6.9726L86.9714 6.85464ZM95.1531 1.15218L95.8465 1.42547L95.8385 1.431L95.8147 1.44743L95.775 1.47492L95.7194 1.51342L95.6479 1.56283L95.5605 1.62319L95.4573 1.6946L95.3381 1.77708L95.2031 1.87041L95.0522 1.97475L94.8854 2.0901L94.7027 2.21645L94.5041 2.35376L94.2896 2.50208L94.0593 2.66135L93.813 2.83162L93.5509 3.01291L93.2729 3.20516L92.979 3.4084L92.6692 3.62261L92.3436 3.84782L92.002 4.08405L91.6445 4.33122L91.2712 4.58941L90.882 4.85854L90.4769 5.13869L90.0559 5.42979L89.619 5.73196L89.1662 6.04502L88.6975 6.36915L88.213 6.70417L87.7126 7.05026L87.0192 6.77698L87.5197 6.43089L88.0042 6.09586L88.4728 5.77173L88.9256 5.45867L89.3625 5.15651L89.7835 4.8654L90.1886 4.58526L90.5778 4.31612L90.9512 4.05793L91.3086 3.81076L91.6501 3.57454L91.9758 3.34932L92.2856 3.13512L92.5795 2.93187L92.8575 2.73963L93.1197 2.55834L93.3659 2.38806L93.5963 2.22879L93.8107 2.08047L94.0093 1.94317L94.1919 1.81681L94.3588 1.70146L94.5097 1.59703L94.6447 1.50369L94.7639 1.42132L94.8672 1.3499L94.9546 1.28944L95.026 1.24003L95.0816 1.20163L95.1213 1.17414L95.1452 1.15761L95.1531 1.15218ZM95.1531 1.15218C95.2571 1.0803 95.4966 1.08317 95.6881 1.15863C95.8795 1.23409 95.9504 1.35359 95.8465 1.42547L95.1531 1.15218Z" fill="#321E19"/>
<path d="M95.8483 0.871071C95.7735 0.766938 95.8788 0.679183 96.0834 0.67519C96.288 0.671197 96.5146 0.752399 96.5894 0.856532L95.8483 0.871071ZM98.3988 6.11963L97.6097 6.00791L97.6037 5.83405L97.5945 5.66106L97.5822 5.48888L97.5667 5.31763L97.5479 5.14725L97.5261 4.97764L97.5011 4.809L97.4728 4.64112L97.4414 4.47412L97.4068 4.30799L97.3691 4.14278L97.3282 3.97838L97.2841 3.81481L97.2369 3.65211L97.1866 3.49033L97.133 3.32937L97.0763 3.16928L97.0165 3.01001L96.9535 2.85171L96.8873 2.69417L96.818 2.53752L96.7456 2.38172L96.67 2.2268L96.5912 2.0727L96.5093 1.91952L96.4243 1.76721L96.3361 1.61567L96.2448 1.46505L96.1504 1.31525L96.0528 1.16632L95.9521 1.01826L95.8483 0.871071L96.5894 0.856532L96.6966 1.00853L96.8005 1.16141L96.9012 1.31505L96.9986 1.46945L97.0927 1.62468L97.1835 1.78073L97.2711 1.93754L97.3554 2.09523L97.4363 2.25373L97.514 2.41295L97.5884 2.57304L97.6596 2.7339L97.7275 2.89553L97.7921 3.05803L97.8535 3.22129L97.9116 3.38538L97.9665 3.55023L98.0181 3.7159L98.0664 3.88239L98.1114 4.04965L98.1532 4.21773L98.1918 4.38663L98.2271 4.55634L98.2592 4.72683L98.288 4.89808L98.3135 5.0702L98.3358 5.24309L98.3549 5.41675L98.3707 5.59128L98.3833 5.76663L98.3927 5.94269L98.3988 6.11963ZM98.3988 6.11963C98.4013 6.2192 98.2267 6.2749 98.0088 6.24408C97.791 6.21326 97.6122 6.10749 97.6097 6.00791L98.3988 6.11963Z" fill="#E7CA81"/>
<path d="M96.9902 0.197784C96.9135 0.093651 97.0167 0.00518432 97.2206 0.000218262C97.4245 -0.00474779 97.6521 0.0756322 97.7288 0.179766L96.9902 0.197784ZM99.9859 7.4214L99.1969 7.3061V7.30539L99.196 7.05058L99.1907 6.79788L99.1809 6.54722L99.1668 6.29876L99.1483 6.05236L99.1253 5.80804L99.0979 5.56583L99.0662 5.32578L99.03 5.08776L98.9894 4.8519L98.9444 4.61809L98.8951 4.38647L98.8413 4.15691L98.7832 3.92949L98.7206 3.70418L98.6537 3.48096L98.5824 3.2598L98.5068 3.04083L98.4268 2.82401L98.3423 2.60924L98.2535 2.39662L98.1604 2.18616L98.0629 1.97774L97.961 1.77146L97.8549 1.56734L97.7443 1.36527L97.6294 1.1654L97.5102 0.967626L97.3867 0.772004L97.2588 0.578483L97.1266 0.387061L96.9902 0.197784L97.7288 0.179766L97.8695 0.374877L98.0056 0.572033L98.1371 0.771185L98.2642 0.972336L98.3866 1.17543L98.5045 1.38063L98.6179 1.58782L98.7267 1.79696L98.831 2.00814L98.9307 2.22138L99.0259 2.43655L99.1166 2.65378L99.2028 2.87306L99.2845 3.09428L99.3616 3.31754L99.4343 3.54281L99.5024 3.77012L99.566 3.99943L99.6252 4.23073L99.6798 4.46409L99.73 4.69949L99.7756 4.93689L99.8168 5.17623L99.8535 5.41773L99.8858 5.66116L99.9135 5.90665L99.9367 6.15413L99.9555 6.40372L99.9698 6.65524L99.9797 6.90887L99.985 7.16444L99.9859 7.42212V7.4214ZM99.9859 7.42212C99.9855 7.52123 99.8084 7.57545 99.5905 7.54325C99.3727 7.51104 99.1964 7.40451 99.1969 7.30539L99.9859 7.42212ZM99.9983 10.6964L99.2093 10.5811V10.578L99.2092 10.5683L99.2092 10.5524L99.2091 10.5299L99.209 10.5012L99.2088 10.466L99.2087 10.4244L99.2085 10.3765L99.2083 10.3221L99.2081 10.2613L99.2078 10.1941L99.2076 10.1206L99.2073 10.0406L99.2069 9.95429L99.2066 9.86152L99.2062 9.76235L99.2058 9.65684L99.2054 9.54487L99.2049 9.42656L99.2044 9.30179L99.204 9.17068L99.2034 9.03316L99.2029 8.88925L99.2023 8.73894L99.2017 8.58222L99.2011 8.41912L99.2005 8.2496L99.1998 8.07369L99.1991 7.89138L99.1984 7.70267L99.1977 7.50762L99.1969 7.3061L99.9859 7.4214L99.9867 7.62291L99.9874 7.81797L99.9881 8.00667L99.9888 8.18899L99.9895 8.36489L99.9902 8.53441L99.9908 8.69752L99.9913 8.85423L99.9919 9.00455L99.9924 9.14846L99.993 9.28597L99.9935 9.41709L99.994 9.54185L99.9944 9.66016L99.9948 9.77213L99.9952 9.87765L99.9956 9.97682L99.9959 10.0696L99.9963 10.1559L99.9966 10.2359L99.9969 10.3094L99.9971 10.3766L99.9974 10.4374L99.9976 10.4918L99.9977 10.5397L99.9979 10.5813L99.998 10.6165L99.9981 10.6452L99.9982 10.6677L99.9983 10.6836L99.9983 10.6933V10.6964ZM99.9983 10.6964C99.9987 10.7957 99.8224 10.8503 99.6045 10.8185C99.3867 10.7867 99.2096 10.6804 99.2093 10.5811L99.9983 10.6964Z" fill="#321E19"/>
<path d="M87.622 7.31476C87.4141 7.31389 87.1927 7.22864 87.1275 7.1244C87.0624 7.02017 87.1781 6.93636 87.386 6.93723L87.622 7.31476ZM99.4741 6.9873L99.7101 7.36483L99.6982 7.36477L99.6628 7.36462L99.604 7.36436L99.5213 7.36406L99.415 7.3636L99.2851 7.36308L99.1316 7.36242L98.9546 7.3617L98.754 7.36088L98.5297 7.35996L98.2817 7.35894L98.0102 7.35781L97.7151 7.35658L97.3963 7.35525L97.0541 7.35382L96.6881 7.35233L96.2985 7.35069L95.8854 7.349L95.4486 7.34721L94.9882 7.34527L94.5042 7.34327L93.9966 7.34117L93.4654 7.33897L92.9106 7.33667L92.3322 7.33426L91.7301 7.3318L91.1045 7.32919L90.4552 7.32653L89.7823 7.32372L89.0858 7.32085L88.3657 7.31783L87.622 7.31476L87.386 6.93723L88.1297 6.9403L88.8498 6.94333L89.5463 6.94619L90.2192 6.94901L90.8684 6.95167L91.4941 6.95428L92.0961 6.95674L92.6746 6.95915L93.2294 6.96145L93.7606 6.96365L94.2682 6.96575L94.7522 6.96774L95.2126 6.96969L95.6493 6.97148L96.0625 6.97317L96.4521 6.97481L96.818 6.97629L97.1604 6.97773L97.4791 6.97906L97.7742 6.98029L98.0457 6.98141L98.2936 6.98244L98.5179 6.98336L98.7185 6.98418L98.8957 6.98489L99.0491 6.98556L99.1789 6.98607L99.2852 6.98653L99.3678 6.98684L99.427 6.9871L99.4625 6.98725L99.4741 6.9873ZM99.4741 6.9873C99.682 6.98812 99.9034 7.07336 99.9686 7.1776C100.034 7.28184 99.918 7.36565 99.7101 7.36483L99.4741 6.9873Z" fill="#321E19"/>
<path d="M88.1645 8.23725C87.9565 8.23613 87.7352 8.15145 87.6703 8.04829C87.6055 7.94512 87.7216 7.86239 87.9296 7.86352L88.1645 8.23725ZM98.7898 7.81708L99.0943 8.18959L98.9443 8.19548L98.7822 8.20116L98.6082 8.20643L98.4218 8.21145L98.2233 8.21616L98.0125 8.22061L97.7894 8.22481L97.5538 8.22865L97.306 8.23223L97.0457 8.23556L96.7729 8.23853L96.4878 8.24125L96.1903 8.24375L95.8802 8.24596L95.5576 8.24785L95.2227 8.24944L94.8753 8.25077L94.5153 8.25184L94.1429 8.25261L93.7581 8.25307L93.3607 8.25333L92.9508 8.25323L92.5284 8.25292L92.0936 8.25225L91.6462 8.25138L91.1863 8.25021L90.714 8.24872L90.2291 8.24698L89.7317 8.24498L89.2218 8.24268L88.6994 8.24012L88.1645 8.23725L87.9296 7.86352L88.4639 7.86638L88.9856 7.86894L89.4948 7.87125L89.9915 7.87324L90.4757 7.87499L90.9473 7.87647L91.4063 7.87765L91.8529 7.87852L92.2868 7.87918L92.7082 7.87949L93.117 7.87959L93.5133 7.87934L93.8971 7.87888L94.2682 7.87811L94.6269 7.87703L94.9729 7.8757L95.3064 7.87412L95.6271 7.87222L95.9354 7.87002L96.2311 7.86761L96.5143 7.8649L96.7847 7.86193L97.0424 7.8586L97.2877 7.85512L97.5201 7.85128L97.7399 7.84718L97.947 7.84283L98.1413 7.83823L98.3229 7.83331L98.4915 7.82814L98.6472 7.82277L98.7898 7.81708ZM98.7898 7.81708C98.9909 7.80858 99.2221 7.88507 99.3061 7.98792C99.3901 8.09078 99.2953 8.18109 99.0943 8.18959L98.7898 7.81708Z" fill="#321E19"/>
<path d="M94.4159 16.6037C94.4313 16.2745 94.2098 15.9946 93.9339 15.8864C93.6574 15.7778 93.3259 15.8409 93.1021 15.9431C92.4328 16.2487 92.0359 17.2153 91.8993 17.902C91.832 18.2402 91.9632 18.5343 92.2598 18.5813C92.6222 18.6387 94.3754 17.4688 94.4159 16.6037ZM93.1029 21.7799C92.7671 21.8466 92.4335 21.8338 92.1015 21.7415C91.21 21.4616 90.6751 20.865 90.4964 19.9513C90.3477 19.1899 90.4727 18.2686 90.8715 17.1875C91.1435 16.4115 91.4521 15.837 91.7969 15.4643C92.5299 14.6722 93.8447 14.5306 94.6604 15.1584C95.2776 15.6335 95.3163 16.0794 95.3026 16.5494C95.2682 17.7298 93.8439 18.8379 92.6454 19.2905C92.345 19.4039 92.1395 19.5664 92.0243 19.7378C91.4346 20.6154 93.2064 21.7334 96.6866 17.7723C97.4908 16.892 98.0008 16.2897 98.2163 15.9657C98.3781 15.7226 98.5344 15.5861 98.6855 15.556C98.8029 15.5328 98.9236 15.5703 99.0474 15.6688C99.1111 15.7264 99.1494 15.7891 99.1626 15.8568C99.1725 15.9075 99.1581 15.9895 99.1192 16.1026C99.0803 16.2158 98.9111 16.4428 98.6116 16.7836L96.9606 18.7725C96.7452 19.0087 96.5231 19.2548 96.2943 19.5112C96.0655 19.7676 95.8552 19.9852 95.6635 20.1639C94.6445 21.1045 93.7908 21.6432 93.1029 21.7799ZM75.7078 33.9906C75.5737 34.0173 75.3716 33.9872 75.1018 33.9001C74.8319 33.8131 74.6287 33.6426 74.4918 33.3885C74.268 33.0463 74.0752 32.4606 73.9131 31.6316C73.6982 30.5319 73.6705 29.0522 73.83 27.1926L73.945 25.6406C73.811 25.5793 73.682 25.5215 73.558 25.467C73.4341 25.4126 73.3278 25.337 73.2392 25.2404C73.1506 25.1438 73.1029 25.0785 73.0963 25.0446C73.0831 24.977 73.1 24.9298 73.1471 24.9028L73.4037 24.8781L74.0479 24.8292L74.6113 21.2899C75.0038 18.927 75.3803 16.8397 75.7409 15.0282C76.488 11.8038 77.0289 9.71023 77.3637 8.74738C77.5597 8.23383 77.7753 7.95384 78.0102 7.9071C78.1444 7.88047 78.2953 7.8944 78.4629 7.94903C78.7882 8.00739 78.9756 8.16354 79.0252 8.41732C79.1045 8.82336 78.8949 10.025 78.3962 12.0224C77.9442 14.0806 77.6383 15.5036 77.4784 16.2911C77.025 18.8771 76.6766 21.1081 76.4332 22.9844L76.2844 23.9631C76.3348 23.953 76.5415 23.8065 76.9046 23.5235C79.0966 21.805 80.8104 19.5575 82.0459 16.781C83.2342 14.1194 83.7006 11.6452 83.4455 9.35826L83.3566 8.76955C83.1648 7.78827 82.8153 7.07111 82.3084 6.61823C81.8015 6.16519 81.0194 6.0438 79.9621 6.25386C78.9385 6.45727 77.892 6.99027 76.8229 7.85298C75.0745 9.2549 73.6271 11.0584 72.4803 13.2636C71.3336 15.4687 70.6967 17.6736 70.5698 19.8783C70.5611 20.5479 70.4562 20.9027 70.2548 20.9427C70.1541 20.9627 70.0477 20.9311 69.9356 20.8479C69.8235 20.7648 69.7458 20.6132 69.7029 20.3933C69.6599 20.1733 69.668 19.6356 69.7275 18.7801C69.9927 16.3019 70.8541 13.8855 72.3116 11.5307C73.769 9.176 75.5141 7.40112 77.547 6.20641C78.1316 5.89692 78.7343 5.68051 79.3552 5.55718L79.9845 5.43206C80.3538 5.35875 80.8124 5.38629 81.3605 5.51469C81.9086 5.64299 82.4472 5.90066 82.976 6.2878C83.5049 6.67485 83.9181 7.09369 84.2154 7.54437C84.5694 8.10682 84.8373 8.85331 85.0192 9.78381C85.1713 10.562 85.2245 11.3249 85.1788 12.0722C84.8849 15.2063 83.6471 18.1942 81.4654 21.0355C80.0311 22.8847 78.5146 24.1792 76.9158 24.9186L76.0138 25.3878L75.8111 27.6954C75.6293 30.3328 75.6359 32.1506 75.8309 33.1489L75.9103 33.555C75.9599 33.8087 75.8925 33.9539 75.7078 33.9906ZM86.1651 24.6101C85.8463 24.6735 85.5453 24.6498 85.2622 24.5391C84.979 24.4284 84.7714 24.2806 84.6394 24.096C84.5075 23.9113 84.4051 23.6328 84.3323 23.2606C84.2265 22.7192 84.251 22.064 84.4057 21.2951C84.5606 20.5261 84.778 19.8325 85.0582 19.2144C85.3383 18.5964 85.6127 18.2607 85.8812 18.2073C86.0826 18.1673 86.3256 18.2508 86.6101 18.458L87.0571 18.7383C86.4905 19.8527 86.0525 21.1348 85.7431 22.5849C85.6173 23.1899 85.5743 23.5939 85.6139 23.7969C85.6404 23.9323 85.6956 23.9916 85.7795 23.975C86.2662 23.8783 87.1841 23.1335 88.5331 21.7405C89.3272 20.8974 90.0538 20.1554 90.7131 19.5147L90.7989 19.4185C91.0478 19.1758 91.2471 18.9911 91.3967 18.8648C91.5464 18.7384 91.6716 18.6652 91.7722 18.6452C91.8226 18.6352 91.8888 18.6396 91.9709 18.6585C92.0531 18.6772 92.1242 18.7071 92.1845 18.7478C92.2449 18.7886 92.2783 18.8259 92.2849 18.8597C92.3014 18.9442 92.0775 19.2261 91.6132 19.705L90.5938 20.7775L89.5793 21.8755C88.1087 23.5385 86.9707 24.4501 86.1651 24.6101ZM87.3263 16.1011C87.1919 16.1278 87.0477 16.1037 86.8938 16.0288C86.7396 15.954 86.6493 15.8489 86.6228 15.7135C86.5865 15.5274 86.6593 15.2757 86.8414 14.9583L86.8768 14.8723C87.0184 14.6156 87.1479 14.4756 87.2654 14.4522C87.3493 14.4356 87.4315 14.4324 87.512 14.4428C87.5924 14.4532 87.7985 14.5484 88.13 14.7286L87.9422 15.3724C87.8 15.8048 87.5948 16.0477 87.3263 16.1011Z" fill="url(#paint0_linear_8066_191)"/>
<defs>
<linearGradient id="paint0_linear_8066_191" x1="74.6632" y1="30.4342" x2="94.3511" y2="9.11763" gradientUnits="userSpaceOnUse">
<stop stop-color="#C49E55"/>
<stop offset="0.490196" stop-color="#F0D68D"/>
<stop offset="1" stop-color="#C49E55"/>
</linearGradient>
</defs>
</svg>
